<?xml version="1.0" encoding="utf-8"?>
<!-- Generator: Adobe Illustrator 25.0.0, SVG Export Plug-In . SVG Version: 6.00 Build 0)  -->
<svg version="1.1" id="Layer_1" xmlns="http://www.w3.org/2000/svg" xmlns:xlink="http://www.w3.org/1999/xlink" x="0px" y="0px"
	 width="708.66144px" height="708.66144px" viewBox="0 0 708.66144 708.66144" enable-background="new 0 0 708.66144 708.66144"
	 xml:space="preserve">
<g>
	<path fill="#983521" d="M432.30798,545.93951c-7.26917,18.40405-12.75061,55.17426-25.71503,67.81238
		c-17.88248,12.58472-32.95789-15.50043-34.50751-30.54944c-4.73502-28.66779,6.37753-56.66907,4.14542-85.22076
		c-24.58505,19.97595-32.51938,54.1991-36.6532,84.26343c0.43967,7.83887-10.25214,11.83746-14.28799,4.75842
		c-4.44067-9.06824-3.02402-19.88861-6.0444-29.4035c-4.64432,10.32587-6.72873,22.01031-12.86588,31.57745
		c-15.48495,14.99713-27.44049-17.66791-29.23782-29.46185c-3.42227-20.20477,1.2933-40.56897,5.23285-60.33484
		c-0.17233-0.13159-0.34464-0.26315-0.517-0.39471c-9.6636,7.97278-15.97293,19.63934-22.79517,30.07245
		c-3.80577,5.53296-7.43637,12.68427-14.69987,13.92981c-13.65331,1.98322-18.93102-14.57123-20.28824-25.43188
		c-5.96861,1.60583-11.75774,3.16333-17.93349,4.82483c87.71432,105.10547-44.47191,159.25983-81.11597,71.56598
		c-12.35033-28.91577,10.65958-77.18134,46.10475-58.68048c3.82388-3.82007,7.51761-7.51007,11.43428-11.42285
		c-12.55089-16.41364-27.17067-31.70917-35.85471-50.7128c-11.98647-22.29611-7.91209-58.13223,20.37601-64.80844
		c16.34859-5.08716,41.33197,13.72147,28.94402,30.50888c-3.50836,3.22818-5.53018-1.84589-4.84512-4.95901
		c0.04022-4.12833-1.43011-7.58282-4.54489-10.32056c-8.82759-7.75906-21.57521-4.35367-26.16246,7.00027
		c-8.46463,33.01215,20.77417,59.11069,38.75446,83.11417c1.14388,1.46844,2.15854,1.93842,4.07721,1.44586
		c6.90785-1.77325,13.87859-3.30145,21.12309-4.99158c3.81242-26.69299,35.07103-33.4856,56.59911-23.4068
		c5.06833-6.67349,13.98532-13.03329,19.95517-3.52872c5.41022,10.10968-1.10324,22.6947-2.32193,33.36295
		c-4.27902,20.95654-4.71912,43.27222,1.32269,63.93549c1.28375-0.31836,1.64844-1.30939,2.0437-2.14288
		c6.27045-12.84076,10.5253-26.5401,15.60861-39.87427c2.28741-10.98016-0.6676-22.76538,3.06735-33.56775
		c1.25558-5.36249,8.16928-11.44055,11.96313-4.57507c4.67218,13.30188,2.97336,27.78711,5.13947,41.73169
		c5.85562-14.41974,33.18613-75.78064,53.35052-55.44604c12.40509,14.95618-1.55447,56.5307-0.65491,76.61395
		c0.52481,14.03656-0.33636,30.8598,8.63156,42.42285c8.78397-4.71448,13.95969-29.96082,18.21591-39.74896
		c4.81461-16.67444,11.93655-32.98169,14.77982-50.10107c0.64352-24.67511,2.62448-49.09589,5.41791-73.64096
		c-4.17264-0.41602-8.16373-0.81396-12.36423-1.23276c0.1904,42.73129-42.62485,14.95953-12.57498-7.36337
		c-4.79443-7.13818-19.80017-1.85718-20.91925,5.73026c-0.14435,8.04688-0.22287,16.09436-0.32675,24.14145
		c0.17099,3.99432,0.09662,8.89404-4.51971,10.21475c-3.961,1.53229-7.47943-1.56335-9.00891-4.99023
		c-10.82175-21.67166-17.44376-45.19318-27.21606-67.18689c-4.2634,29.53934-0.6268,59.27948,0.32135,88.84909
		c-0.17462,2.00525-1.39059,3.25012-2.96082,3.30835c-4.83282-0.55463-3.33041-8.39233-4.49802-11.96164
		c-4.81818-30.81247-2.65643-61.92776-0.12997-92.83224c-0.01898-10.18301,9.35831-12.89212,15.13193-4.65402
		c6.57983,10.15094,9.42825,22.2804,14.15659,33.35129c3.24924,7.4859,4.95154,15.69257,8.9841,22.76306
		c1.46689-21.05408,4.16269-41.97415,9.24081-62.48843c0.50128-3.08582,2.48834-7.8945,6.14276-6.58557
		c2.04285,0.67596,2.79474,2.4939,2.18719,5.12305c-4.32507,15.86438-5.29962,31.94019-6.54669,48.33072
		c9.59052-6.61151,22.54202-5.62286,28.76059,4.8515c6.12216,0,11.88083,0,17.8287,0
		c1.85129-6.36713,9.61407-39.86526,19.21719-24.17517c2.23389,8.31168,0.38007,17.11774,0.44769,25.68152
		c36.55823,1.98828,80.16785-2.12265,101.87299-35.62067c2.02979-2.7081,5.98871-0.69016,5.02301,2.46893
		c-17.58191,40.59622-69.6524,46.92163-108.87665,46.30933c-4.64142,43.44995-12.31915,114.15482,3.4548,154.44974
		c9.80316-27.28412,14.4328-56.27142,23.3815-83.87494c0.24887-0.88397,0.35989-2.01935,0.02118-2.82333
		c-3.08038-7.31134-3.61151-14.90842-2.53073-22.64035c2.30399-24.20413,27.98688-56.44818,53.5657-38.83121
		c4.5639-5.62741,7.35602-17.69424,15.77637-16.87149c3.81512,0.51517,6.70844,3.23419,7.78497,7.34641
		c1.26178,12.58881-5.15546,24.91998-6.87061,37.36111c-4.05188,18.82233-5.92456,37.87439-5.10413,57.12933
		c0.74908,9.16772,1.39526,19.14655,6.15002,27.23438c2.02118,3.60968,2.44867,8.17267,3.73383,12.12378
		c1.92865,5.92236-5.35254,9.71808-9.30902,5.21887c-26.70068-37.77002-20.59143-72.32416-13.2453-114.5303
		c-8.99982,13.55505-15.78015,28.66675-23.91611,42.80679c-4.02585,7.43939-11.97931,17.5094-21.05975,10.86798
		c-8.21542,27.63666-12.67966,56.44733-21.68512,83.7796c-4.9108,10.29456-16.18207,3.68829-20.15518-3.85614
		c-9.51141-15.94769-11.82367-34.9425-14.06735-53.0528C432.66757,545.99646,432.48776,545.96802,432.30798,545.93951z
		 M163.78117,546.84247c-26.0518-9.87073-37.10138,27.54871-26.88925,46.13092
		c31.29047,62.40771,130.13478,29.81744,50.14311-63.13123c-4.10159,2.52332-7.55656,5.5816-10.47415,9.34314
		c14.72949,13.32263,18.52907,39.02917,2.38113,52.53748c-8.66707,6.51654-19.71315-0.95593-21.20424-10.6145
		C155.05872,569.07416,159.93874,558.18097,163.78117,546.84247z M272.79007,495.86853
		c-11.59229-2.06039-26.91982-0.84659-30.36937,12.30673c-1.85342,7.77963-1.93111,16.2493,1.84883,23.41916
		C254.96753,520.52832,262.7731,507.61258,272.79007,495.86853z M527.51825,461.04425
		c-18.29645-9.18991-31.83807,31.79507-29.06931,45.26187c0.18567,0.06042,0.37137,0.12085,0.55704,0.18127
		C510.05609,492.45328,518.66125,476.51016,527.51825,461.04425z M169.30806,550.69501
		c-4.30301,8.22345-6.54346,17.06165-5.05623,26.20386c0.54686,4.29431,4.67091,12.23987,9.37683,7.0921
		C181.90088,573.75482,178.43559,559.57709,169.30806,550.69501z M416.5401,442.83701
		c-5.8811,1.74057-10.14291,10.10654-4.12918,13.49753C416.60559,455.98013,417.02106,446.32483,416.5401,442.83701z
		 M312.98624,438.87576c-10.30994,4.77295-17.2832,5.10257-33.09445,2.93805c-11.97876,29.34174-56.33621,28.93387-66.27191-1.96988
		c-5.76401-18.50754-2.50288-43.60965,14.82326-54.85242c4.64871-3.76968,16.56898-1.9223,14.08583,5.72256
		c-0.76547,1.62286-2.19559,2.32953-3.75476,1.48398c-1.78995-0.97064-3.25592-0.48672-4.42303,0.71719
		c-5.86945,5.63297-8.28391,13.62506-9.05679,21.51141c-1.35938,12.3909,0.98729,26.71674,11.35707,34.82578
		c11.3064,9.28992,28.08727,2.93069,34.15086-9.75702c-12.97711-3.89059-31.4449-15.54248-22.69994-30.98682
		c8.81972-15.22806,32.44356-6.27863,33.79857,9.91513c0.74826,4.69305,0.78806,9.71979,0.49619,14.48984
		c10.43863,3.1611,21.42062,2.73248,30.28619-1.44043c0.17255-12.22186-0.84305-25.1225,4.08075-36.60898
		c1.81238-4.59827,8.22467-7.5502,11.01404-2.13019c2.11676,4.03793,1.63858,8.8613,1.46896,13.27078
		c-1.07535,21.1965-0.52832,42.59918,3.07816,63.54318c0.72363,5.04706,2.50775,13.66162-4.23575,14.84854
		C316.15497,487.27399,314.57968,447.11322,312.98624,438.87576z M272.64679,430.04507
		c1.76648-7.25793-1.25381-18.27765-9.47522-19.2417c-4.72189-1.01382-8.47411,4.33057-5.95813,8.44403
		C260.69247,424.83148,266.8031,427.61758,272.64679,430.04507z"/>
	<path fill="#983521" d="M301.3338,392.29208c7.68481-18.64194,12.07901-38.86786,16.15631-58.56741
		c0.71335-9.11002,0.38593-19.45432,6.17117-27.05231c3.16287-4.83447,10.99945-2.70087,11.00128,3.14548
		c2.19376,16.98596-6.09253,40.52191,2.70187,55.61032c7.86304-8.00558,10.07147-19.69519,14.56897-29.67969
		c-0.02524-11.66089-2.59772-23.34015,2.24078-34.70895c13.45782-38.59756,51.49692-16.79947,35.67169,1.19876
		c-7.14627,6.81091-19.53751,6.20517-19.35413,9.68973c-2.00171,14.34933-2.09268,30.1232,4.84845,43.21347
		c7.60672,14.89584,25.25867-30.64398,29.15646-36.04837c1.94751-6.5061-0.12766-13.71753,1.84488-20.35135
		c1.70816-10.70648,11.14877-11.66235,13.47278-0.60965c5.1427,23.41025,1.37433,47.73035,6.29269,71.17166
		c7.7381-23.50024,14.01419-47.2475,19.22662-71.41583c0.13312-4.87143,5.11481-9.55307,9.08356-4.85513
		c2.97125,5.10242,6.26239,10.0947,11.42068,12.07715c3.86948-13.38602,9.95123-28.67926,24.42926-33.25574
		c6.16479-2.44003,14.39203-0.93991,17.43613,5.47321c7.22488,13.63474-4.84143,28.47452-17.46707,33.33209
		c-2.42639,1.40915-6.7261,0.90897-6.81824,4.52423c-0.44363,3.76846-1.15402,7.52167-1.33453,11.30121
		c0.1575,9.78052-2.34561,20.14047,2.72879,29.11603c3.95026-2.92426,6.17212-6.6658,8.75491-10.61963
		c8.99652-15.37195,17.62177-30.96198,26.6001-46.34445c0.79163-1.34103,0.97876-2.57199,0.68701-4.08731
		c-3.05817-17.65384-0.09167-40.83086,17.61035-49.68271c16.49054-8.95424,34.31897,7.97672,26.68665,25.13364
		c-5.19098,6.28854-6.54291-4.92764-7.93719-8.26398c-2.6225-7.02986-8.08093-5.31421-11.5611-0.01965
		c-9.90912,12.86044-6.70221,29.5195-1.86652,43.65781c8.00635-5.79773,16.77765-9.17764,26.65088-9.76477
		c2.77972-0.14017,5.59747-0.80243,8.37372-0.42169c3.82385,0.62897,4.25537,5.94635,0.15466,6.68011
		c-11.04236,3.01035-24.14246,3.16962-32.776,11.50076c33.74841,93.8465-43.5498,103.09625-32.74072,40.83701
		c2.41095-11.11899,7.01416-21.26712,13.54077-30.53943c1.11407-1.5827,1.32617-2.89566,0.66443-4.69159
		c-1.61768-4.23941-2.50159-8.33878-4.25592-12.59674c-8.47797,15.35162-16.54721,30.72739-24.93692,46.1055
		c-3.86145,8.45496-13.08649,17.13699-22.23972,10.06903c-14.8537-11.73224-14.79578-32.56696-12.12106-49.64807
		c-4.10504-2.54474-8.13959-5.04575-12.3873-7.67892c-7.33496,26.51312-10.37207,54.54135-21.14536,79.98019
		c-16.69565,19.89111-21.80499-45.39056-24.33466-53.97134c-6.07693,10.34641-9.22827,22.33902-17.4201,31.25348
		c-13.57986,13.461-28.07745-3.20129-32.74088-16.44818c-3.53046,7.24362-5.21103,15.22516-9.90964,21.83417
		c-11.12561,15.30325-22.90427-1.80298-25.90201-13.77817c-4.43521,14.44092-5.10931,29.99271-11.9057,43.60449
		c-16.53833,22.32413-32.04065-25.52597-33.61966-37.97836c-5.88043,15.72955-19.16675,18.30737-30.87752,6.46759
		c-9.69254-9.32922-12.55428-22.4884-14.52559-35.28769c-2.66769,1.00482-5.10628,1.92334-7.66293,2.88629
		c-3.78833,82.26785-67.29723,63.9267-44.27664,18.85089c-10.66551-0.69012-22.75441-41.51532-26.37257-51.55267
		c-6.37675,8.19153-11.81676,17.88525-12.08682,28.49634c-0.46146,2.60287,2.39346,7.44189-0.64369,8.75763
		c-3.79784,0.92014-4.27681-5.4071-4.93967-8.01938c-0.60008-4.74582,0.32617-9.36072,1.86798-13.86172
		c1.65207-4.82294,3.9874-9.30154,6.79315-13.54041c1.94876-4.13602,7.10339-7.78671,6.83614-12.50552
		c-5.71382-32.20065-6.04416-72.0795,19.43324-96.20071c8.66058-8.71873,23.68391-9.67526,30.01302,2.23161
		c8.25383,14.89093,1.18459,32.52765-6.04106,46.3904c-4.44165,8.02007-9.89101,15.34381-15.42955,22.61273
		c-2.68433,4.68005-13.42966,14.93735-12.55942,19.39313c2.50275,13.7673,5.56747,27.41513,10.86546,40.39685
		c2.72765-10.15192,6.31033-20.185,14.28084-27.35263c9.11278-8.67392,23.34024-2.41043,27.95522,8.01932
		c3.25288,6.40427,3.92903,13.10672,4.50822,20.25443c2.55537-0.82806,4.92931-1.59738,7.49402-2.4285
		c1.53319-16.34125,8.96861-40.00616,28.97771-39.32657c8.55591,1.1517,14.30896,8.90323,13.10721,17.5239
		c-1.44696,12.44421-11.55908,19.13092-22.50958,22.9812c-0.52687,10.79153-0.34802,22.34592,4.40578,32.32129
		c5.90321,12.09302,10.93251,7.36493,14.80724-2.70917c3.177-6.6727,5.68405-13.48917,4.52686-21.09247
		c1.86224-30.97778,7.095-82.1552,37.81015-97.73338c14.92578-5.56734,24.58633,12.01776,22.27429,24.92509
		c-3.65274,20.08746-17.49649,36.74841-31.68402,50.71368c-2.48141,3.0264-7.1687,4.71783-8.24557,8.60461
		c-1.58752,24.11948-2.29349,49.7937,7.72763,72.31647C300.82111,392.26721,301.07745,392.27963,301.3338,392.29208z
		 M162.85001,273.04639c13.66148-19.10796,37.37508-44.33025,28.6716-69.50677c-5.51558-12.38463-16.60826-0.81099-20.25824,6.74057
		C161.13348,229.48589,160.66823,251.87868,162.85001,273.04639z M294.42587,307.1611
		c0.16446,0.09399,0.32892,0.18802,0.49338,0.28198c12.60391-12.07303,34.72653-38.64175,26.99261-56.92068
		C312.31454,231.82574,294.50131,300.72751,294.42587,307.1611z M207.63887,339.33859
		c-14.37485,5.88522-32.81754,19.58426-25.68501,36.82571c2.8174,5.14786,7.52237,6.15067,12.20068,2.57443
		C205.1951,368.97552,206.3511,353.53442,207.63887,339.33859z M531.33258,330.96158
		c-8.94897,13.76224-17.73596,37.98483-4.13647,51.40683c3.71808,3.13129,7.42865-0.72549,8.91382-4.18689
		C540.93359,362.50269,536.90973,346.03253,531.33258,330.96158z M207.65865,331.11578
		c0.25578-8.92834-5.04012-33.55569-16.22096-18.75711c-7.21329,9.6351-8.38113,22.1727-9.0208,33.81848
		C189.76498,339.22153,198.23253,334.56973,207.65865,331.11578z M249.88542,318.3075
		c7.45311-2.82147,12.67638-8.69717,11.99702-16.57101c-0.06937-1.50531-1.61566-4.80411-3.34647-2.87766
		c-4.58112,4.59009-5.62923,11.36099-8.217,17.11008C250.10477,316.52759,250.09012,317.16296,249.88542,318.3075z
		 M487.44009,302.47852c6.43164-2.74744,13.32059-8.86041,11.34396-16.61359
		C493.39066,290.62555,489.5119,295.88156,487.44009,302.47852z M373.31171,302.09827
		c4.06393-0.01407,7.57394-1.59995,10.44324-4.18384C387.71054,292.74011,376.88763,286.94208,373.31171,302.09827z
		 M326.52252,291.24176c-3.71582,7.74167,9.72913,10.77185,9.41168,1.82675
		C336.34698,286.57639,328.98242,287.26025,326.52252,291.24176z"/>
	<path fill="#AECBCD" d="M144.76018,367.51117c2.85023-1.05951,4.63338-1.72403,7.4077-2.05914
		c3.07207-0.38507,4.95728,3.82864,2.36549,5.86923c-3.07321,2.51865-5.86479,4.43567-9.09744,6.94281
		c3.45294,2.30038,12.05144,3.07568,10.62665,8.02551c-0.73189,1.77313-2.58231,2.2251-5.11827,1.42249
		c-3.55833-0.95474-6.71082-2.35321-10.45865-2.59656c-0.23933,4.23297,3.91837,12.23749-1.53262,13.81863
		c-5.46407,0.66385-5.08965-8.85645-6.83768-12.66196c-2.11934,2.70746-3.38924,4.88147-5.85868,6.89319
		c-3.08194,2.39294-7.63264-0.59476-6.41368-4.37466c1.41899-3.92328,4.01048-6.4411,6.49764-10.14984
		c-3.14839-0.36588-5.67117-0.08951-8.69819,0.00104c-3.47807,0.12451-4.71479-4.75217-1.75038-6.35632
		c5.0801-2.35184,10.73618-1.81918,16.12389-3.28415c-0.57561-3.57727-2.29857-6.61206-3.09468-10.08218
		c-0.59277-3.20673,3.72826-4.84103,5.24034-1.83734c1.36119,2.69009,2.0891,4.82483,3.3569,7.78265
		c3.11771-2.72766,5.82191-10.61914,10.48232-7.77997C151.28568,360.47098,145.86777,363.97092,144.76018,367.51117z
		 M430.65674,291.78342c5.99768-1.70743,1.03735-10.13037,3.41833-14.36169c4.96478,1.87518,9.26932,4.32391,14.17172,6.16415
		c1.38397,0.30783,2.52499-0.2572,3.20691-1.45129c2.4064-5.39267-8.84509-7.33228-12.01367-10.10172
		c5.78601-2.80234,11.13217-4.88693,16.47858-7.82544c1.41028-0.96313,1.88455-2.36307,1.43463-3.76498
		c-2.75055-6.07431-17.39865,0.95892-22.4855,1.99377c-0.49271-4.21744,1.60413-16.84074-4.34821-16.62248
		c-1.35095,0.22154-2.34656,1.27808-2.51685,2.80582c-0.21542,4.47725,0.46454,9.13197-0.16714,13.56944
		c-5.3844,0.06543-10.01328-0.15839-15.21609,0.11688c-2.23706,0.18198-3.4971,1.59436-3.50647,3.42026
		c0.19122,4.42783,5.98428,3.25308,9.59036,3.81723c-1.53561,1.17929-2.57782,1.87714-3.49768,2.70996
		c-3.01953,2.48929-0.2204,7.26938,3.414,5.92722c2.78064-1.15546,4.67441-2.30399,7.6998-3.71857
		C427.15253,279.62094,423.58032,291.75565,430.65674,291.78342z M366.16302,79.63638
		c-2.85077-5.58341-8.87582,0.82558-13.03485,1.00233c1.17868-3.02975,4.63297-7.00009,1.15982-9.23716
		c-1.52271-0.93639-3.32867-0.65787-4.58044,0.9408c-2.13763,2.97488-3.51047,5.72651-5.50467,9.03376
		c-2.53183-2.33014-6.05502-9.73768-9.91901-7.03518c-3.92453,3.6636,3.0271,7.89307,4.74646,11.4138
		c-4.85767,1.29382-8.77615,2.45059-13.33557,4.12164c-5.56116,1.84521-3.46835,8.80862,2.1868,7.48634
		c2.96362-0.51411,5.52151-1.45749,8.55545-1.91059c-1.03989,2.78979-1.91553,4.97442-2.27869,7.78397
		c-0.42291,3.72161,4.52438,5.66336,6.80151,2.75141c2.14252-2.80389,3.3299-5.87846,4.86646-9.14494
		c3.77255,2.30952,6.80417,5.16156,9.92712,8.21186c2.02362,1.88205,3.81036,1.9803,5.2905,0.56864
		c3.64474-4.12898-5.34698-9.65901-7.3905-13.22521C356.11761,88.60936,367.98889,84.30341,366.16302,79.63638z M385.6745,245.83662
		c3.09473-1.5479,1.82257-6.44998-1.66241-6.20561c-3.32449,0.42467-5.91495,1.26755-9.59146,2.02023
		c1.78665-3.16728,3.36337-5.30537,5.06631-8.3419c1.83881-3.14891-1.98254-6.26602-4.78061-4.01659
		c-3.38089,2.93378-6.48166,5.94766-9.92032,9.04291c-2.79593-2.04794-7.91171-12.00539-11.62943-9.36671
		c-4.08273,3.81483,5.51624,11.24606,7.06335,15.2028c-4.64301,1.9277-9.43149,2.66319-13.37933,5.56413
		c-2.30859,1.67279-0.94571,5.87025,1.93716,5.79793c3.85422,0.19298,6.73965-2.18593,10.45071-2.9772
		c-0.61389,4.35757-5.73187,15.95026,0.37448,17.19266c1.5322,0.17599,2.65155-0.46997,3.30826-1.82791
		c2.01254-4.54865,2.47998-9.22766,4.32886-13.90907c3.58954,2.28746,9.66537,13.93037,13.53705,10.81264
		c4.09253-3.71063-5.95932-10.19899-7.6152-14.07536C377.70346,248.93089,381.52908,247.5838,385.6745,245.83662z
		 M491.10104,574.37506c-4.8186,1.38818-2.92624,8.50507,1.93332,7.33209c2.87228-0.67365,5.04089-1.56824,8.01263-2.45526
		c-0.87827,4.7995-1.61234,8.61243-1.70065,13.27661c-0.13129,5.5423,6.66272,6.52582,7.97943,1.05164
		c0.94302-3.44141,1.20999-6.20728,1.70035-9.97565c3.68213,2.03271,9.70239,11.46942,13.67401,8.16547
		c4.09412-4.59137-5.80597-9.79578-7.94366-13.58496c2.57709-3.06238,5.94763-4.1637,9.3158-5.6911
		c2.59674-1.24268,1.99384-5.58429-0.83295-6.04889c-2.1698-0.35315-3.97302-0.27307-6.28595-0.27881
		c0.98608-1.80865,1.92773-3.3457,2.68042-4.97015c1.65686-3.35419-2.80029-6.22876-5.28528-3.51556
		c-1.96393,2.41156-3.55142,4.58582-5.65848,7.17676c-1.56067-3.11145-2.39847-5.54968-3.84576-8.51318
		c-1.68039-3.54883-6.64929-1.44006-5.73401,2.14197c1.40372,4.25146,3.23953,7.9032,4.9798,12.31006
		C499.54153,572.02649,495.52823,573.01129,491.10104,574.37506z M242.3372,231.99724
		c-1.51447-0.07971-2.67943,0.52545-3.07971,1.70366c-1.41399,4.97801,7.98909,6.55803,11.35838,9.05431
		c-3.15704,2.80827-14.69556,7.48828-11.62927,12.29703c0.95352,1.40483,2.48488,1.85701,4.325,1.15092
		c4.25035-1.91222,7.46379-4.81081,11.66998-6.96478c-0.2617,5.17331-1.38246,9.76767-1.16327,14.86047
		c0.21346,1.44955,1.34853,2.47693,2.70778,2.63931c5.45193,0.16235,3.66669-10.35541,4.89377-14.43924
		c2.95056,1.36664,4.82172,2.86943,7.36826,4.5488c3.40927,2.00192,6.80588-2.78473,3.68985-5.33047
		c-1.74545-1.39845-3.25616-2.14861-5.33701-3.50629c4.08359-2.01454,7.27853-3.44063,11.04901-5.58482
		c1.57147-0.93541,2.07803-2.38039,1.71429-3.92361c-2.5162-5.54648-10.40704-1.23094-15.04974-0.46347
		c-0.12372-3.85274,3.7334-12.3596-0.82056-13.92725c-1.28961-0.30957-2.38812,0.20781-3.00055,1.31976
		c-2.06943,4.27486-2.03336,9.24741-3.42386,13.75577C253.01515,235.89639,247.86978,233.28625,242.3372,231.99724z
		 M133.48062,166.56194c-2.96367,2.46643,0.12306,7.07155,3.5341,5.59511c3.50627-1.63539,5.96243-3.36433,9.60785-5.42696
		c0.18077,4.68832-4.59724,15.92018,1.69212,17.09045c6.49637-0.06473,3.66254-11.97275,5.67984-16.36275
		c4.08397,0.47974,7.65059,1.87605,11.61758,2.76228c4.07864,1.36681,6.21919-4.0385,2.63168-5.99779
		c-3.34251-1.89001-6.79756-2.50565-10.5921-3.6084c2.10695-3.35632,4.73485-5.94292,7.10144-9.05371
		c3.6115-5.02144-2.45578-7.41948-6.49522-4.71062c0.47749-2.82451,2.0372-6.59251-1.04626-7.87523
		c-1.54689-0.6409-3.1376-0.16425-4.15152,1.5778c-1.53587,2.77237-2.66893,5.3942-3.92899,8.37961
		c-2.07298-2.54987-4.80431-6.89986-8.04198-4.23492c-1.45993,1.22444-1.67787,3.00333-0.50386,4.87479
		c1.84587,2.58286,3.786,5.02434,5.66597,7.63084C142.43117,160.83841,137.38084,162.93622,133.48062,166.56194z
		 M564.08588,362.92648c-0.7326,2.93817,1.69397,5.22745,4.60223,4.42548c3.79651-1.29846,5.96149-4.82928,9.36011-6.90085
		c1.61969,4.16785,0.80963,14.36789,6.87408,13.54602c1.46582-0.40692,2.48071-1.58725,2.55255-3.1395
		c-0.41711-4.27145-1.34955-8.30865-2.00195-12.75037c4.22198-1.80115,8.75415-1.93207,13.20996-2.772
		c3.54565-0.35208,3.93079-4.91632,0.70038-6.05978c-4.76385-0.95239-9.68872-0.83505-14.56757-1.01318
		c-0.83447-4.11636,3.0874-16.17102-2.3681-16.89493c-1.35413-0.05917-2.22986,0.64413-2.71417,1.83707
		c-1.5437,4.93759-0.6601,10.37466-2.99182,15.10992c-3.0155-0.07104-5.93787-0.57251-8.93738-0.66226
		c-1.78082-0.05316-3.01483,1.0889-3.23999,2.65302c-0.49316,3.05692,2.94543,3.65741,5.45447,4.12689
		C567.74457,357.19836,565.1806,359.52261,564.08588,362.92648z M485.80405,242.12125
		c-1.76654,2.21288,0.4989,5.93027,3.26944,5.2731c3.4086-0.81413,5.76431-3.10651,8.82285-5.02
		c1.58096,3.4502,1.92996,11.34714,7.02023,10.13788c3.74207-1.96062,0.461-6.96846,0.69437-10.25369
		c3.81039-0.78912,7.42148-0.78923,11.23093-1.30292c1.91077-0.22612,2.81848-1.10475,2.96735-2.58607
		c0.3421-3.07024-3.14758-3.44162-5.79321-4.13235c2.86359-1.89748,11.85529-6.16475,4.6626-8.3158
		c-4.21936,1.42015-7.96588,4.61752-12.27844,6.01984c-0.23941-2.19238-0.36349-4.17935-0.69614-6.13077
		c-1.83066-5.55597-7.32446-2.41917-6.16165,3.51468c-3.41443-1.10257-6.49197-1.90724-9.9079-2.79503
		c-4.52505-1.34406-6.27216,5.06468-1.64691,6.22687c2.61807,0.66779,4.38928,0.97508,7.54663,1.70137
		C492.0816,237.32288,488.53296,238.68779,485.80405,242.12125z M252.32678,630.05792
		c12.63538,0.03259,12.67041-19.16791,0.06905-19.23242C239.8007,610.74823,239.71773,630.05548,252.32678,630.05792z
		 M289.55481,622.98224c10.21692,0.15924,10.61993-15.10815,0.42834-15.33783
		C280.12796,607.49677,279.45883,622.72998,289.55481,622.98224z M148.22523,517.50366
		c9.91429,0.02606,10.10605-15.07227,0.08098-15.12686C138.53065,502.3981,138.49701,517.31311,148.22523,517.50366z
		 M191.09755,271.35651c0.21902,8.12103,12.45074,7.9519,12.36049-0.21356
		C203.61815,263.04181,190.76773,263.42062,191.09755,271.35651z M494.46378,410.58304
		c7.80176-0.1619,7.74725-12.1524-0.16763-12.03339C486.35953,398.72156,486.64594,410.57709,494.46378,410.58304z
		 M596.82104,311.20889c0.08752-7.17255-11.05157-6.87399-10.90479,0.21844
		C585.59479,319.17288,597.0307,318.08813,596.82104,311.20889z M457.55347,383.54272
		c6.83411,0.24777,6.91397-10.58868,0.17538-10.55896C450.96097,372.82104,450.7128,383.55533,457.55347,383.54272z
		 M117.2275,332.61261c0.29474-6.58951-10.01036-6.99826-10.14602-0.35544
		C106.69559,338.87411,117.15912,339.14236,117.2275,332.61261z M256.87939,582.58301
		c-0.29999,6.85724,10.11688,6.56494,10.013,0.0838C267.05136,576.19647,256.82639,576.11823,256.87939,582.58301z
		 M451.85068,232.5406c-0.26614,6.49956,9.72949,6.62692,9.70071,0.30698
		C461.36795,226.80301,452.0065,225.97797,451.85068,232.5406z M128.91275,488.72745
		c3.89085,0.21625,5.15973-7.09579,0.58881-7.1713C124.96223,481.45251,124.05791,488.60818,128.91275,488.72745z"/>
	<g>
		<path fill="#983521" d="M269.30029,117.57129c0.63345,0.8444,0.63345,2.32279,0.63345,3.3787
			c-0.63345,30.41389-1.26688,55.96902-1.90088,86.38236c0,3.80173-0.42245,8.23691-3.59021,10.56024
			c-2.74582,2.1124-6.75851,1.47839-9.50433-0.42247c-2.95679-1.68935-4.85767-4.85765-6.75853-7.60292
			c-10.56026-17.53029-18.58565-36.53841-25.55568-55.75806c-0.21097,21.33147-0.42247,42.45198-0.84441,63.57249
			c0,1.90086,0,4.0127-1.6899,5.0686c-1.47839,1.05647-3.80174,0.21152-5.06862-1.47838
			c-0.42247-0.63344-0.63399-1.47839-0.84496-2.11183c-1.90086-6.33604-0.63399-14.362-0.63399-20.909
			c0-7.39252,0-14.78447,0-22.17642c0-14.99544,0-29.77991,0-44.56436c0-4.0127,0.21152-8.44788,3.16829-11.1937
			c3.37927-2.74526,8.65939-1.68935,12.03865,1.05592c3.1683,2.95734,5.06862,7.181,6.54756,11.19424
			c8.44788,21.11996,16.68478,42.02951,25.13321,63.14946c0.42191-25.13321,0.63342-44.35229,1.05591-69.48605
			c0-2.5343,0.21097-6.12453,1.68936-8.23691c1.26743-1.68935,4.43518-2.32279,5.91412-0.8444
			C269.08936,117.35977,269.30029,117.35977,269.30029,117.57129z"/>
		<path fill="#983521" d="M347.22983,142.28201c-0.42249,0.63344-0.84497,1.05592-1.26743,1.47839
			c-1.68936,1.05592-3.37927,2.11183-5.06863,2.95679c-1.05646,0.42247-1.90085,0.63344-2.74582,1.05591
			c-0.42249,0-2.74582,0.42249-2.74582,0.63344c0.21152,26.6116-3.16776,66.1068-3.16776,66.31831
			c-0.84494,4.0127-1.68988,4.85765-4.4357,5.06862c-4.43518,0.21152-7.60294-1.26688-8.02542-4.43518
			c-0.21152-1.68935-0.63397-3.37926-0.84494-4.85765c-0.42249-4.64668-3.59021-61.88258-3.59021-62.72754
			c-6.12509-1.05591-12.25018-2.11183-18.16373-3.16774c-1.26746,0.84441-7.39197,28.72343-1.26746,62.93849
			c0.42249,2.53432,1.05649,5.06862,1.47839,7.81444c0.21152,1.05592,0.42249,2.32335,0.42249,3.37926
			c-0.21097,1.47839-1.47839,2.53432-2.74527,2.32335c-1.68991-0.21152-2.95734-1.05591-3.80173-2.74582
			c-0.634-1.47839-1.26743-3.16774-1.68991-5.06862c-0.84439-3.59077-3.80173-16.26285-3.80173-41.39606
			c0-8.23691,3.1683-26.40063,3.37924-27.24504c-0.84439,0.42192-8.02539,3.59023-9.7153,3.59023
			c-2.74527,0.21095-6.12451-2.53432-3.37924-5.06917c1.90085-1.68936,7.181-3.59023,7.60345-3.59023
			c2.32336-0.84496,4.6467-1.47839,7.181-1.47839c2.74582-12.46112,10.77121-24.71072,23.02139-23.44385
			c6.75851,0.63399,11.61615,4.85765,14.78391,10.77177c2.1124,3.80173,3.80173,7.60291,4.6467,11.61617
			c0.21094,1.47839,0.63342,2.74527,0.84494,4.43517c0,0,0,0,0.21097,0c1.68991,0.21097,3.59021-0.63344,5.0686-1.26743
			c0.84497-0.21095,1.47894-0.63344,2.1124-0.63344c1.05591-0.42247,2.11182-0.63344,3.37924-0.63344
			C346.80734,138.90276,348.4967,140.38115,347.22983,142.28201z M314.91562,141.22556
			c-0.84497-7.18045-1.68991-13.93896-4.85767-20.69749c-5.91409,3.16775-9.92682,11.61617-11.82767,18.16317v0.21152
			c0.84494,0.21097,1.47839,0.42247,2.32333,0.63344c2.11185,0.42249,5.0686,1.05592,5.49109,1.05592
			c2.1124,0.42247,4.01324,0.63344,6.12509,0.63344C313.01474,141.43706,313.85971,141.22556,314.91562,141.22556z"/>
		<path fill="#983521" d="M436.35358,198.88448c0,3.37926-0.21097,6.75851-0.63345,10.13777
			c-0.42245,2.74582-0.63397,5.49109-1.90085,8.02596c-1.26743,2.32278-3.37927,4.43517-6.33606,4.43517
			c-3.16827,0.21097-5.70261-1.90086-7.181-4.64668c-1.47836-2.74582-1.68988-5.91356-2.11237-8.87035
			c-1.90088-23.02138-3.37927-46.04276-6.33606-69.06358c-0.21094,0.21097-15.20639,73.70972-16.2623,76.24458
			c-1.05646,2.5343-2.95734,4.64613-5.70261,5.0686c-3.37924,0.63344-5.91412-1.26688-7.81442-3.80173
			c-1.68991-2.53432-2.32333-5.70261-2.95734-8.65939c-4.64615-22.80986-8.87036-45.83124-14.15048-68.4296
			c-0.21097,0-2.5343,47.5206-1.68936,70.33046c0,2.32335,0,4.43518-0.84494,6.75853
			c-0.84494,2.11238-2.5343,3.59077-4.85767,4.22421c-0.84494,0-1.68988-0.21097-2.32333-0.84496
			c-0.63342-0.63344-0.42249-1.47839-0.42249-2.53432c0.42249-31.04677-1.05591-61.67162,4.22421-92.29591
			c0.42249-2.5343,0.84497-5.28013,2.95679-6.97003c3.37927-2.74527,7.81445-2.32279,10.98273,0.63399
			c4.64615,4.0127,6.54703,10.13779,8.44788,15.62888c2.32336,6.96948,4.6467,13.728,6.54758,20.48651
			c2.32333,8.44843,4.22366,16.89685,5.70261,25.34473c4.22363-18.79716,8.44785-37.38281,13.51703-56.17999
			c0.84439-2.32334,1.26688-5.06916,3.59021-6.54755c3.59024-2.32334,8.02597-1.47839,10.98273,1.6899
			c4.0127,4.43517,5.49109,10.5597,6.96948,16.26231c1.68991,7.181,3.1683,13.93951,4.43518,21.12051
			C435.29767,170.58296,436.77606,184.73399,436.35358,198.88448z"/>
		<path fill="#983521" d="M498.86517,120.10559c0.21097,1.68935-1.26743,2.11183-2.53485,2.11183
			c-5.49109,0.21152-10.98218-0.21096-16.47382,0.42248c-2.11185,0.21096-4.64615,0.63344-5.91357,2.5343
			c-2.11182,2.74583-3.59021,11.1937-3.80173,14.15102c4.64667-0.2115,14.36197-0.42247,12.67209,4.85767
			c-0.63345,2.32278-3.80121,2.5343-5.91357,2.74525c-2.5343,0-4.85767,0-7.181,0c0,0.84496-0.21097,2.74583-0.21097,4.01326
			c-1.47839,20.69803-2.74582,42.0295,2.11185,62.30505c0.21152,1.26688,17.74124-0.42247,19.4306-0.42247
			c1.05646,0,2.32333,0,3.59076,0.42247c1.05591,0.42249,2.11185,1.26688,2.11185,2.53432
			c-0.21097,0.42247-0.42249,0.84494-0.63345,1.26743c-1.47839,1.68935-3.80173,2.32278-5.91357,2.74527
			c-5.70261,1.47839-11.40518,1.47839-17.31876,1.05591c-2.74582-0.21095-5.70261-0.63344-8.44843-1.47839
			c-4.22366-1.47839-7.60294-4.22365-9.29282-8.23691c-6.33606-14.99542-7.181-31.89172-7.81445-47.94307
			c-0.21152-8.65938-0.21152-17.31877,1.26688-25.76665c1.26743-8.65938,4.22421-17.74125,13.72855-20.27555
			c6.54703-1.90087,14.15048-1.47839,20.909-0.84496c1.47839,0,7.60349,0.21096,11.8277,1.26743
			C496.33032,117.99321,498.65366,118.6272,498.86517,120.10559z"/>
	</g>
</g>
</svg>
