<svg xmlns="http://www.w3.org/2000/svg" xml:space="preserve" width="2.83333in" height="2.83333in" version="1.1" style="shape-rendering:geometricPrecision; text-rendering:geometricPrecision; image-rendering:optimizeQuality; fill-rule:evenodd; clip-rule:evenodd" viewBox="0 0 2833 2833" xmlns:xlink="http://www.w3.org/1999/xlink">
 <defs>
  <style type="text/css">
   
    .fil4 {fill:#2E7547}
    .fil1 {fill:#378B4E}
    .fil3 {fill:#C95142}
    .fil2 {fill:#DF5A49}
    .fil0 {fill:#FFBFA7}
   
  </style>
 </defs>
 <g id="Layer_x0020_1">
  <metadata id="CorelCorpID_0Corel-Layer"></metadata>
  <circle class="fil0" cx="1417" cy="1417" r="1417" id="id_101" style="fill: rgb(255, 255, 255);"></circle>
  <path class="fil1" d="M748 1822c-14,0 -25,-11 -25,-25l0 -710c0,-14 11,-25 25,-25 14,0 25,11 25,25l0 710c-1,14 -12,25 -25,25z" id="id_102"></path>
  <path class="fil1" d="M683 1177c-6,0 -12,-3 -17,-7 -9,-10 -9,-25 0,-35l66 -66c9,-10 25,-10 34,0 10,9 10,25 0,34l-65 67c-5,5 -12,7 -18,7z" id="id_103"></path>
  <path class="fil1" d="M813 1177c-5,0 -12,-3 -16,-7l-67 -67c-10,-9 -10,-25 0,-34 10,-10 25,-10 35,0l66 66c10,10 10,25 0,35 -5,5 -11,7 -18,7z" id="id_104"></path>
  <path class="fil2" d="M1774 822l-710 0c-13,0 -25,-11 -25,-25 0,-14 12,-24 25,-24l710 0c14,0 25,11 25,24 0,12 -12,25 -25,25z" id="id_105"></path>
  <path class="fil2" d="M1774 822c-5,0 -12,-3 -16,-7l-67 -67c-9,-10 -9,-25 0,-34 10,-10 25,-10 35,0l67 66c9,10 9,25 0,35 -6,5 -13,7 -19,7z" id="id_106"></path>
  <path class="fil2" d="M1708 888c-6,0 -13,-2 -17,-7 -9,-9 -9,-25 0,-34l67 -67c10,-10 25,-10 35,0 9,10 9,25 0,35l-67 66c-6,4 -11,7 -18,7z" id="id_107"></path>
  <g id="_366609656">
   <path class="fil3" d="M748 998c-101,0 -184,-83 -184,-185 0,-101 83,-184 184,-184 101,0 185,83 185,184 0,102 -84,185 -185,185z" id="id_108"></path>
   <path class="fil2" d="M748 998c-56,0 -106,-25 -140,-65 -12,-25 -19,-53 -19,-82 0,-101 83,-185 184,-185 56,0 106,26 140,65 13,25 20,53 20,82 0,102 -84,185 -185,185z" id="id_109"></path>
  </g>
  <g id="_368128008">
   <path class="fil4" d="M2087 962c-102,0 -185,-82 -185,-183 0,-102 83,-185 185,-185 101,0 183,83 183,185 0,101 -82,183 -183,183z" id="id_110"></path>
   <path class="fil1" d="M2087 962c-70,0 -131,-39 -162,-96 -4,-14 -6,-30 -6,-46 0,-101 83,-184 184,-184 69,0 129,39 160,95 4,16 7,31 7,48 0,101 -82,183 -183,183z" id="id_111"></path>
  </g>
  <path class="fil1" d="M2087 1822c-14,0 -25,-11 -25,-25l0 -710c0,-14 11,-25 25,-25 13,0 24,11 24,25l0 710c0,14 -11,25 -24,25z" id="id_112"></path>
  <path class="fil1" d="M2087 1822c-6,0 -13,-3 -17,-7l-67 -67c-9,-10 -9,-25 0,-35 10,-9 25,-9 35,0l67 67c9,10 9,25 0,35 -6,4 -12,7 -18,7z" id="id_113"></path>
  <path class="fil1" d="M2087 1822c-6,0 -13,-3 -17,-7 -10,-10 -10,-25 0,-35l65 -67c10,-9 25,-9 35,0 9,10 9,25 0,35l-65 67c-6,4 -12,7 -18,7z" id="id_114"></path>
  <path class="fil2" d="M1774 2068l-710 0c-13,0 -25,-11 -25,-24 0,-14 12,-25 25,-25l710 0c14,0 25,11 25,25 0,13 -12,24 -25,24z" id="id_115"></path>
  <path class="fil2" d="M1064 2068c-5,0 -12,-2 -16,-6 -10,-10 -10,-25 0,-35l66 -67c10,-9 25,-9 35,0 10,10 10,25 0,35l-67 67c-5,4 -12,6 -18,6z" id="id_116"></path>
  <path class="fil2" d="M1130 2132c-6,0 -13,-2 -17,-7l-67 -65c-9,-10 -9,-25 0,-35 10,-9 25,-9 35,0l67 66c9,9 9,25 0,34 -6,6 -11,7 -18,7z" id="id_117"></path>
  <g id="_368124384">
   <path class="fil3" d="M2086 2228c-101,0 -185,-83 -185,-184 0,-102 84,-185 185,-185 101,0 184,83 184,185 0,101 -83,184 -184,184z" id="id_118"></path>
   <path class="fil2" d="M2086 2228c-56,0 -106,-25 -140,-65 -13,-25 -20,-53 -20,-82 0,-101 84,-184 185,-184 56,0 106,25 140,64 12,25 19,53 19,83 0,101 -83,184 -184,184z" id="id_119"></path>
  </g>
  <g id="_368156064">
   <path class="fil4" d="M749 2238c-101,0 -185,-81 -185,-183 0,-101 84,-184 185,-184 101,0 183,83 183,184 0,102 -82,183 -183,183z" id="id_120"></path>
   <path class="fil1" d="M749 2238c-70,0 -131,-38 -162,-95 -4,-15 -6,-30 -6,-46 0,-101 83,-184 185,-184 69,0 129,38 160,95 4,15 6,31 6,47 0,102 -82,183 -183,183z" id="id_121"></path>
  </g>
 </g>
</svg>