<?xml version="1.0" encoding="UTF-8"?>
<!DOCTYPE svg PUBLIC "-//W3C//DTD SVG 1.1//EN" "http://www.w3.org/Graphics/SVG/1.1/DTD/svg11.dtd">
<!-- Creator: CorelDRAW -->
<svg xmlns="http://www.w3.org/2000/svg" xml:space="preserve" width="1.70666in" height="1.70666in" version="1.1" style="shape-rendering:geometricPrecision; text-rendering:geometricPrecision; image-rendering:optimizeQuality; fill-rule:evenodd; clip-rule:evenodd"
viewBox="0 0 1707 1707"
 xmlns:xlink="http://www.w3.org/1999/xlink">
 <defs>
  <style type="text/css">
   <![CDATA[
    .fil0 {fill:#B7B7B7}
    .fil3 {fill:#BFDAF1}
    .fil5 {fill:#C7CCCE}
    .fil1 {fill:#C7CFD5}
    .fil2 {fill:#CDEBD6}
    .fil6 {fill:#D2D6D7}
    .fil4 {fill:#FACDCD}
    .fil7 {fill:#FAFAFA}
   ]]>
  </style>
 </defs>
 <g id="Layer_x0020_1">
  <metadata id="CorelCorpID_0Corel-Layer"/>
  <g id="_549514536">
   <path class="fil0" d="M853 1039c-102,0 -185,-83 -185,-186 0,-102 83,-185 185,-185 103,0 186,83 186,185 0,103 -83,186 -186,186zm0 -326c-77,0 -140,63 -140,140 0,78 63,141 140,141 78,0 141,-63 141,-141 0,-77 -63,-140 -141,-140z"/>
   <path class="fil1" d="M853 502c-12,0 -22,-10 -22,-23l0 -324c0,-13 10,-23 22,-23 13,0 23,10 23,23l0 324c0,13 -10,23 -23,23z"/>
   <path class="fil2" d="M950 178l-193 0c-13,0 -23,-11 -23,-23l0 -132c0,-13 10,-23 23,-23l193 0c12,0 23,10 23,23l0 132c0,12 -11,23 -23,23z"/>
   <path class="fil1" d="M1177 689c-7,0 -15,-4 -19,-11 -7,-11 -3,-25 8,-31l281 -163c11,-6 25,-2 31,9 6,11 2,25 -8,31l-281 162c-4,2 -8,3 -12,3z"/>
   <path class="fil3" d="M1507 610c-8,0 -16,-4 -20,-11l-97 -167c-6,-11 -2,-25 9,-31l114 -66c5,-3 11,-4 17,-2 6,1 11,5 14,10l96 167c7,11 3,25 -8,31l-114 66c-4,3 -8,3 -11,3z"/>
   <path class="fil1" d="M1458 1225c-4,0 -8,-1 -11,-3l-281 -162c-11,-6 -15,-20 -8,-31 6,-11 20,-15 31,-8l281 162c10,6 14,20 8,31 -4,7 -12,11 -20,11z"/>
   <path class="fil4" d="M1524 1375c-4,0 -8,-1 -11,-3l-114 -66c-11,-6 -15,-20 -9,-31l97 -167c6,-11 20,-15 31,-9l114 66c5,3 9,8 11,14 1,6 1,12 -3,17l-96 168c-4,7 -12,11 -20,11z"/>
   <path class="fil1" d="M853 1575c-12,0 -22,-11 -22,-23l0 -325c0,-12 10,-22 22,-22 13,0 23,10 23,22l0 325c0,12 -10,23 -23,23z"/>
   <path class="fil2" d="M950 1706l-193 0c-13,0 -23,-10 -23,-22l0 -132c0,-13 10,-23 23,-23l193 0c12,0 23,10 23,23l0 132c0,12 -11,22 -23,22z"/>
   <path class="fil1" d="M248 1225c-7,0 -15,-4 -19,-11 -7,-11 -3,-25 8,-31l281 -162c11,-7 25,-3 31,8 6,11 3,25 -8,31l-281 162c-4,2 -8,3 -12,3z"/>
   <path class="fil3" d="M182 1375c-7,0 -15,-4 -19,-11l-97 -168c-3,-5 -4,-11 -2,-17 1,-6 5,-11 10,-14l115 -66c11,-6 25,-2 31,9l96 167c3,5 4,11 3,17 -2,6 -6,11 -11,14l-114 66c-4,2 -8,3 -12,3z"/>
   <path class="fil1" d="M529 689c-4,0 -7,-1 -11,-3l-281 -162c-11,-6 -14,-20 -8,-31 6,-11 20,-15 31,-9l281 163c11,6 14,20 8,31 -4,7 -12,11 -20,11z"/>
   <path class="fil4" d="M200 610c-4,0 -8,-1 -11,-3l-115 -66c-10,-6 -14,-20 -8,-31l97 -167c6,-11 20,-14 31,-8l114 66c11,6 15,20 8,31l-96 167c-3,5 -8,9 -14,11 -2,0 -4,0 -6,0z"/>
   <g>
    <path class="fil5" d="M920 1248l-133 0c-12,0 -22,-8 -23,-20l-13 -108c-28,-11 -54,-26 -78,-45l-99 43c-11,5 -24,1 -30,-10l-66 -115c-6,-10 -3,-23 6,-30l87 -65c-2,-15 -3,-30 -3,-45 0,-15 1,-30 3,-45l-87 -64c-9,-7 -12,-20 -6,-31l66 -115c6,-10 19,-14 30,-9l99 43c24,-20 50,-35 78,-45l13 -108c1,-12 11,-21 23,-21l133 0c12,0 21,9 23,21l12 108c29,10 55,25 78,45l100 -43c11,-5 23,-1 29,9l67 115c6,10 3,24 -7,31l-87 64c3,15 4,30 4,45 0,15 -1,30 -4,45l87 65c10,7 13,20 7,30l-67 115c-6,11 -18,15 -29,10l-100 -43c-23,19 -49,34 -78,45l-12 108c-2,12 -11,20 -23,20z"/>
    <path class="fil6" d="M853 1057c-112,0 -203,-92 -203,-204 0,-112 91,-203 203,-203 112,0 204,91 204,203 0,112 -92,204 -204,204z"/>
    <path class="fil7" d="M853 983c-71,0 -129,-58 -129,-130 0,-71 58,-129 129,-129 72,0 130,58 130,129 0,72 -58,130 -130,130z"/>
   </g>
  </g>
 </g>
</svg>
