<?xml version="1.0" encoding="UTF-8" standalone="no"?> <svg xmlns="http://www.w3.org/2000/svg" xmlns:xlink="http://www.w3.org/1999/xlink" viewBox="0 0 64 64"><defs><style>.cls-1{fill:url(#linear-gradient);}</style><linearGradient id="linear-gradient" x1="3.4" y1="32" x2="60.6" y2="32" gradientUnits="userSpaceOnUse"><stop offset="0" stop-color="#5bb4f6"/><stop offset="0.61" stop-color="#2191e5"/><stop offset="1" stop-color="#007edb"/></linearGradient></defs><g id="Layer_83" data-name="Layer 83"><path class="cls-1" d="M32,3.4h0A28.59,28.59,0,0,0,3.4,32h0A28.59,28.59,0,0,0,32,60.6h0A28.59,28.59,0,0,0,60.6,32h0A28.59,28.59,0,0,0,32,3.4ZM29.67,51.17a.6.6,0,0,1-.6.6H16.83a4.6,4.6,0,0,1-4.6-4.6V34.93a.6.6,0,0,1,.6-.6H25.07a4.61,4.61,0,0,1,4.6,4.6Zm0-26.1a4.61,4.61,0,0,1-4.6,4.6H12.83a.6.6,0,0,1-.6-.6V16.83a4.6,4.6,0,0,1,4.6-4.6H29.07a.6.6,0,0,1,.6.6Zm22.1,22.1a4.6,4.6,0,0,1-4.6,4.6H34.93a.6.6,0,0,1-.6-.6V38.93a4.61,4.61,0,0,1,4.6-4.6H51.17a.6.6,0,0,1,.6.6ZM48.43,24.29h-2v2a3.34,3.34,0,0,1-6.68,0v-2h-2a3.34,3.34,0,0,1,0-6.68h2v-2a3.34,3.34,0,0,1,6.68,0v2h2a3.34,3.34,0,1,1,0,6.68Z"/></g></svg>