<?xml version="1.0" encoding="UTF-8" standalone="no"?> <svg xmlns="http://www.w3.org/2000/svg" viewBox="0 0 64 64"><defs><style>.cls-1{fill:#f15a24;}</style></defs><g id="Layer_9" data-name="Layer 9"><path d="M60,56.25s0-.06,0-.09V9.5A6.51,6.51,0,0,0,53.53,3H21.48A6.52,6.52,0,0,0,15,9.5h0V30H5a1,1,0,0,0-1,1v13.8a6.52,6.52,0,0,0,6.51,6.51H26v4.81s0,.05,0,.07a1.55,1.55,0,0,0,0,.23.77.77,0,0,0,.07.16,1,1,0,0,0,0,.1l2.67,3.85a1,1,0,0,0,.82.43,1,1,0,0,0,.82-.43l1.85-2.66,1.85,2.66A1,1,0,0,0,35,61a1,1,0,0,0,.82-.43l1.85-2.66,1.85,2.66a1,1,0,0,0,.82.43,1,1,0,0,0,.82-.43L43,57.91l1.84,2.66a1,1,0,0,0,1.65,0l1.85-2.66,1.85,2.66a1,1,0,0,0,1.64,0l1.85-2.66,1.85,2.66a1,1,0,0,0,.82.43,1,1,0,0,0,.82-.43l2.68-3.84s0-.07,0-.09a1.08,1.08,0,0,0,.08-.19A1.42,1.42,0,0,0,60,56.25ZM6,44.84V32h9v12.8a4.51,4.51,0,0,1-9,0Zm9.19,4.51A6.48,6.48,0,0,0,17,44.84V9.51h0A4.51,4.51,0,0,1,21.48,5,4.52,4.52,0,0,1,26,9.5V49.35Zm41.21,8.9-1.85-2.67a1,1,0,0,0-1.64,0L51,58.25l-1.85-2.67a1,1,0,0,0-1.65,0l-1.84,2.67-1.85-2.67a1,1,0,0,0-.82-.43,1,1,0,0,0-.82.43l-1.85,2.67-1.85-2.67a1,1,0,0,0-1.64,0L35,58.25l-1.85-2.67a1,1,0,0,0-.82-.43,1,1,0,0,0-.82.43l-1.85,2.67L28,55.85V9.5A6.47,6.47,0,0,0,26.17,5H53.53A4.51,4.51,0,0,1,58,9.5V55.84Z"/><path class="cls-1" d="M42.19,20.34h1.65A1.11,1.11,0,0,1,45,21.41a1,1,0,0,1-.32.74,1.16,1.16,0,0,1-.82.32H40.71a1,1,0,0,0,0,2H42v1.37a1,1,0,0,0,2,0V24.46a3.2,3.2,0,0,0,2-.87A3.06,3.06,0,0,0,47,21.41a3.11,3.11,0,0,0-3.14-3.07H42.19a1.1,1.1,0,0,1-1.13-1.07,1,1,0,0,1,.32-.75,1.2,1.2,0,0,1,.81-.32h3.13a1,1,0,0,0,0-2H44V12.84a1,1,0,1,0-2,0v1.38a3.11,3.11,0,0,0-2,.87,3,3,0,0,0-.93,2.18A3.1,3.1,0,0,0,42.19,20.34Z"/><path class="cls-1" d="M43,30.17A10.83,10.83,0,1,0,32.19,19.34,10.84,10.84,0,0,0,43,30.17Zm0-19.66a8.83,8.83,0,1,1-8.83,8.83A8.84,8.84,0,0,1,43,10.51Z"/><path class="cls-1" d="M32,36.93H42a1,1,0,0,0,0-2H32a1,1,0,0,0,0,2Z"/><path class="cls-1" d="M52,39.7H32a1,1,0,0,0,0,2H52a1,1,0,0,0,0-2Z"/><path class="cls-1" d="M52,44.46H32a1,1,0,0,0,0,2H52a1,1,0,0,0,0-2Z"/><path class="cls-1" d="M52,49.22H32a1,1,0,0,0,0,2H52a1,1,0,0,0,0-2Z"/></g></svg>