<svg xmlns="http://www.w3.org/2000/svg" xml:space="preserve" width="1.70666in" height="1.70666in" version="1.1" style="shape-rendering:geometricPrecision; text-rendering:geometricPrecision; image-rendering:optimizeQuality; fill-rule:evenodd; clip-rule:evenodd" viewBox="0 0 1707 1707" xmlns:xlink="http://www.w3.org/1999/xlink">
 <defs>
  <style type="text/css">
   
    .fil0 {fill:url(#id0)}
   
  </style>
  <linearGradient id="id0" gradientUnits="userSpaceOnUse" x1="9.40551" y1="853.181" x2="1697.26" y2="853.181">
   <stop offset="0" style="stop-opacity: 1; stop-color: rgb(255, 255, 255);" id="id_113"></stop>
   <stop offset="1" style="stop-opacity: 1; stop-color: rgb(255, 255, 255);" id="id_114"></stop>
  </linearGradient>
 </defs>
 <g id="Layer_x0020_1">
  <metadata id="CorelCorpID_0Corel-Layer"></metadata>
  <path class="fil0" d="M462 256c-7,-2 -38,9 -38,39 0,21 17,38 38,38 106,0 127,152 27,180 0,16 3,47 -27,47 -29,0 -26,-31 -26,-47 -60,-17 -85,-90 -43,-99 43,-8 19,55 74,49 51,-5 42,-76 -4,-76 -106,0 -128,-150 -27,-180 0,-16 -4,-47 26,-47 31,0 27,31 27,47 56,16 85,87 43,98 -40,10 -23,-50 -70,-49zm0 395c-160,0 -291,-131 -291,-291 0,-161 131,-292 291,-292 161,0 292,131 292,292 0,160 -131,291 -292,291zm0 -529c-131,0 -237,106 -237,238 0,131 106,238 237,238 132,0 238,-107 238,-238 0,-132 -106,-238 -238,-238zm1209 1585l-1635 0c-35,0 -35,-54 0,-54l131 0 0 -327c0,-15 12,-27 27,-27l287 0c15,0 27,12 27,27l0 327 175 0 0 -623c0,-15 12,-27 27,-27l287 0c15,0 27,12 27,27l0 623 175 0 0 -1121c0,-14 12,-26 27,-26l287 0c14,0 26,12 26,26l0 1121 132 0c35,0 35,54 0,54zm-1450 -54l233 0 0 -300 -233 0 0 300zm516 0l233 0 0 -596 -233 0 0 596zm515 0l234 0 0 -1094 -234 0 0 1094zm-993 -605c-26,0 -37,-34 -16,-48l181 -126c-25,-69 26,-144 101,-144 44,0 82,27 99,65l189 -31c5,-55 51,-98 109,-97l92 -324c-95,-55 -55,-201 54,-201 33,0 64,16 83,40l166 -75 -120 -56c-32,-15 -9,-63 22,-49l166 77c11,5 17,16 15,28l-26 181c-5,35 -57,27 -52,-8l17 -125 -166 76c12,66 -38,127 -108,126l-91 325c94,55 55,200 -54,200 -44,0 -82,-27 -99,-65l-189 30c-8,87 -111,128 -177,71l-181 125c-5,4 -10,5 -15,5zm320 -219c-12,-67 -108,-57 -108,8 0,77 119,68 108,-8zm341 -109c-71,0 -71,108 0,108 71,0 71,-108 0,-108zm148 -524c-71,0 -71,108 0,108 71,0 71,-108 0,-108z" id="id_112"></path>
 </g>
</svg>