<svg xmlns="http://www.w3.org/2000/svg" xml:space="preserve" width="1.99999in" height="1.99999in" version="1.1" style="shape-rendering:geometricPrecision; text-rendering:geometricPrecision; image-rendering:optimizeQuality; fill-rule:evenodd; clip-rule:evenodd" viewBox="0 0 2000 2000" xmlns:xlink="http://www.w3.org/1999/xlink">
 <defs>
  <style type="text/css">
   
    .fil0 {fill:url(#id0)}
    .fil10 {fill:url(#id1)}
    .fil11 {fill:url(#id2)}
    .fil13 {fill:url(#id3)}
    .fil3 {fill:url(#id4)}
    .fil12 {fill:url(#id5)}
    .fil1 {fill:url(#id6)}
    .fil5 {fill:url(#id7)}
    .fil6 {fill:url(#id8)}
    .fil8 {fill:url(#id9)}
    .fil7 {fill:url(#id10)}
    .fil2 {fill:url(#id11)}
    .fil4 {fill:url(#id12)}
    .fil14 {fill:url(#id13)}
    .fil9 {fill:url(#id14)}
   
  </style>
  <linearGradient id="id0" gradientUnits="userSpaceOnUse" x1="452.705" y1="379.602" x2="1251.78" y2="379.602">
   <stop offset="0" style="stop-opacity: 1; stop-color: rgb(79, 219, 172);" id="id_116"></stop>
   <stop offset="1" style="stop-opacity:1; stop-color:#FF6600" id="id_117"></stop>
  </linearGradient>
  <linearGradient id="id1" gradientUnits="userSpaceOnUse" x1="679.315" y1="797.689" x2="886.394" y2="797.689">
   <stop offset="0" style="stop-opacity:1; stop-color:#BABABA" id="id_118"></stop>
   <stop offset="1" style="stop-opacity:1; stop-color:#A6A6A6" id="id_119"></stop>
  </linearGradient>
  <linearGradient id="id2" gradientUnits="userSpaceOnUse" xlink:href="#id1" x1="654.311" y1="883.098" x2="772.858" y2="883.098">
  </linearGradient>
  <linearGradient id="id3" gradientUnits="userSpaceOnUse" xlink:href="#id1" x1="1131.37" y1="803.953" x2="1249.93" y2="803.953">
  </linearGradient>
  <linearGradient id="id4" gradientUnits="userSpaceOnUse" x1="593.343" y1="911.65" x2="1406.67" y2="911.65">
   <stop offset="0" style="stop-opacity:1; stop-color:#E6E6E6" id="id_120"></stop>
   <stop offset="1" style="stop-opacity:1; stop-color:#CCCCCC" id="id_121"></stop>
  </linearGradient>
  <linearGradient id="id5" gradientUnits="userSpaceOnUse" xlink:href="#id1" x1="1206.38" y1="887.268" x2="1324.92" y2="887.268">
  </linearGradient>
  <linearGradient id="id6" gradientUnits="userSpaceOnUse" x1="452.701" y1="463.902" x2="1439.93" y2="463.902">
   <stop offset="0" style="stop-opacity:1; stop-color:#FFAC3E" id="id_122"></stop>
   <stop offset="1" style="stop-opacity:1; stop-color:#FF8331" id="id_123"></stop>
  </linearGradient>
  <linearGradient id="id7" gradientUnits="userSpaceOnUse" xlink:href="#id4" x1="624.591" y1="1240.81" x2="1375.41" y2="1240.81">
  </linearGradient>
  <linearGradient id="id8" gradientUnits="userSpaceOnUse" xlink:href="#id4" x1="624.591" y1="1394.98" x2="1375.41" y2="1394.98">
  </linearGradient>
  <linearGradient id="id9" gradientUnits="userSpaceOnUse" xlink:href="#id4" x1="624.591" y1="1703.31" x2="1375.41" y2="1703.31">
  </linearGradient>
  <linearGradient id="id10" gradientUnits="userSpaceOnUse" xlink:href="#id4" x1="624.591" y1="1549.13" x2="1375.41" y2="1549.13">
  </linearGradient>
  <linearGradient id="id11" gradientUnits="userSpaceOnUse" xlink:href="#id0" x1="452.709" y1="1209.56" x2="1547.3" y2="1209.56">
  </linearGradient>
  <linearGradient id="id12" gradientUnits="userSpaceOnUse" x1="999.563" y1="1023.41" x2="1346.44" y2="1023.41">
   <stop offset="0" style="stop-opacity:1; stop-color:#378B4E" id="id_124"></stop>
   <stop offset="1" style="stop-opacity:1; stop-color:#99CC33" id="id_125"></stop>
  </linearGradient>
  <linearGradient id="id13" gradientUnits="userSpaceOnUse" xlink:href="#id12" x1="653.543" y1="1011.95" x2="1146.33" y2="1011.95">
  </linearGradient>
  <linearGradient id="id14" gradientUnits="userSpaceOnUse" x1="949.091" y1="851.85" x2="1099.92" y2="851.85">
   <stop offset="0" style="stop-opacity:1; stop-color:yellow" id="id_126"></stop>
   <stop offset="1" style="stop-opacity:1; stop-color:#FFCC00" id="id_127"></stop>
  </linearGradient>
 </defs>
 <g id="Layer_x0020_1">
  <metadata id="CorelCorpID_0Corel-Layer"></metadata>
  <path class="fil0" d="M476 613c-8,0 -16,-5 -20,-12 -7,-12 -3,-26 9,-32l752 -419c7,-4 16,-4 23,0 7,4 12,12 12,20l0 219c0,13 -11,23 -24,23 -12,0 -23,-10 -23,-23l-718 221c-3,2 -7,3 -11,3z" id="id_101"></path>
  <path class="fil1" d="M476 613c-10,0 -20,-7 -23,-18 -3,-12 5,-25 17,-28l941 -251c7,-2 14,0 20,4 6,5 9,11 9,19l0 250c0,13 -11,24 -23,24 -13,0 -24,-11 -24,-24l-911 23c-2,0 -4,1 -6,1z" id="id_102"></path>
  <path class="fil2" d="M1524 1853l-1048 0c-13,0 -23,-10 -23,-23l0 -1241c0,-13 10,-23 23,-23l1048 0c13,0 23,10 23,23l0 1241c0,13 -10,23 -23,23z" id="id_103"></path>
  <path class="fil3" d="M1329 1131l-658 0c-43,0 -78,-35 -78,-78l0 -283c0,-43 35,-78 78,-78l658 0c43,0 78,35 78,78l0 283c0,43 -35,78 -78,78z" id="id_104"></path>
  <path class="fil4" d="M1329 1131l-239 0 0 0c-6,0 -12,-3 -16,-7l-68 -67c-4,-4 -6,-10 -6,-17 0,-6 2,-12 6,-16l101 -101c10,-9 24,-9 33,0l206 206c-5,1 -11,2 -17,2z" id="id_105"></path>
  <path class="fil5" d="M1352 1264l-704 0c-13,0 -23,-10 -23,-23 0,-13 10,-24 23,-24l704 0c13,0 23,11 23,24 0,13 -10,23 -23,23z" id="id_106"></path>
  <path class="fil6" d="M1352 1418l-704 0c-13,0 -23,-10 -23,-23 0,-13 10,-23 23,-23l704 0c13,0 23,10 23,23 0,13 -10,23 -23,23z" id="id_107"></path>
  <path class="fil7" d="M1352 1572l-704 0c-13,0 -23,-10 -23,-23 0,-13 10,-23 23,-23l704 0c13,0 23,10 23,23 0,13 -10,23 -23,23z" id="id_108"></path>
  <path class="fil8" d="M1352 1727l-704 0c-13,0 -23,-11 -23,-24 0,-13 10,-23 23,-23l704 0c13,0 23,10 23,23 0,13 -10,24 -23,24z" id="id_109"></path>
  <path class="fil9" d="M1025 927c-42,0 -76,-34 -76,-75 0,-42 34,-76 76,-76 41,0 75,34 75,76 0,41 -34,75 -75,75z" id="id_110"></path>
  <path class="fil10" d="M863 821l-160 0c-13,0 -24,-10 -24,-23 0,-13 11,-24 24,-24l160 0c13,0 23,11 23,24 0,13 -10,23 -23,23z" id="id_111"></path>
  <path class="fil11" d="M750 906l-72 0c-13,0 -24,-10 -24,-23 0,-13 11,-23 24,-23l72 0c12,0 23,10 23,23 0,13 -11,23 -23,23z" id="id_112"></path>
  <path class="fil12" d="M1302 911l-72 0c-13,0 -24,-11 -24,-24 0,-13 11,-23 24,-23l72 0c12,0 23,10 23,23 0,13 -11,24 -23,24z" id="id_113"></path>
  <path class="fil13" d="M1227 827l-72 0c-13,0 -24,-10 -24,-23 0,-13 11,-23 24,-23l72 0c12,0 23,10 23,23 0,13 -11,23 -23,23z" id="id_114"></path>
  <path class="fil14" d="M1146 1131l-475 0 0 0 -1 0 -1 0 0 0 0 0 0 0 -2 0 0 0 0 0 -2 0 0 0 0 0 -1 0 -1 -1 0 0 0 0 0 0 -1 0 0 0 -1 0 0 0 0 0 -1 0 0 0 0 0 0 0 -1 0 0 0 0 0 0 0 -1 0 0 0 0 0 -1 0 0 0 0 0 0 0 0 0 -1 -1 0 0 0 0 0 0 -1 0 0 0 0 0 0 0 -1 0 0 0 228 -229c10,-9 24,-9 33,0l231 231z" id="id_115"></path>
 </g>
</svg>