<?xml version="1.0" encoding="UTF-8"?>
<!DOCTYPE svg PUBLIC "-//W3C//DTD SVG 1.1//EN" "http://www.w3.org/Graphics/SVG/1.1/DTD/svg11.dtd">
<!-- Creator: CorelDRAW -->
<svg xmlns="http://www.w3.org/2000/svg" xml:space="preserve" width="1.70666in" height="1.70666in" version="1.1" style="shape-rendering:geometricPrecision; text-rendering:geometricPrecision; image-rendering:optimizeQuality; fill-rule:evenodd; clip-rule:evenodd"
viewBox="0 0 1707 1707"
 xmlns:xlink="http://www.w3.org/1999/xlink">
 <defs>
  <style type="text/css">
   <![CDATA[
    .fil5 {fill:url(#id0)}
    .fil8 {fill:url(#id1)}
    .fil9 {fill:url(#id2)}
    .fil10 {fill:url(#id3)}
    .fil4 {fill:url(#id4)}
    .fil0 {fill:url(#id5)}
    .fil11 {fill:url(#id6)}
    .fil13 {fill:url(#id7)}
    .fil6 {fill:url(#id8)}
    .fil2 {fill:url(#id9)}
    .fil3 {fill:url(#id10)}
    .fil1 {fill:url(#id11)}
    .fil7 {fill:url(#id12)}
    .fil12 {fill:url(#id13)}
   ]]>
  </style>
  <linearGradient id="id0" gradientUnits="userSpaceOnUse" x1="1415.33" y1="477.965" x2="1415.33" y2="598.331">
   <stop offset="0" style="stop-opacity:1; stop-color:red"/>
   <stop offset="1" style="stop-opacity:1; stop-color:#990000"/>
  </linearGradient>
  <linearGradient id="id1" gradientUnits="userSpaceOnUse" x1="693.378" y1="1214.34" x2="693.378" y2="316.362">
   <stop offset="0" style="stop-opacity:1; stop-color:#E6E6E6"/>
   <stop offset="1" style="stop-opacity:1; stop-color:#CCCCCC"/>
  </linearGradient>
  <linearGradient id="id2" gradientUnits="userSpaceOnUse" xlink:href="#id0" x1="231.76" y1="848.374" x2="231.76" y2="1327.15">
  </linearGradient>
  <linearGradient id="id3" gradientUnits="userSpaceOnUse" x1="170.72" y1="1080.81" x2="170.72" y2="1198">
   <stop offset="0" style="stop-opacity:1; stop-color:#E60000"/>
   <stop offset="1" style="stop-opacity:1; stop-color:#8A0000"/>
  </linearGradient>
  <linearGradient id="id4" gradientUnits="userSpaceOnUse" xlink:href="#id0" x1="1252.89" y1="333.736" x2="1252.89" y2="454.087">
  </linearGradient>
  <linearGradient id="id5" gradientUnits="userSpaceOnUse" xlink:href="#id0" x1="1334.1" y1="93.4646" x2="1334.1" y2="838.594">
  </linearGradient>
  <linearGradient id="id6" gradientUnits="userSpaceOnUse" xlink:href="#id0" x1="855.685" y1="316.366" x2="855.685" y2="1152.55">
  </linearGradient>
  <linearGradient id="id7" gradientUnits="userSpaceOnUse" x1="671.673" y1="1141.17" x2="671.673" y2="1000.75">
   <stop offset="0" style="stop-opacity:1; stop-color:#CFCFCF"/>
   <stop offset="1" style="stop-opacity:1; stop-color:#B8B8B8"/>
  </linearGradient>
  <linearGradient id="id8" gradientUnits="userSpaceOnUse" xlink:href="#id0" x1="433.063" y1="1179.49" x2="433.063" y2="1613.2">
  </linearGradient>
  <linearGradient id="id9" gradientUnits="userSpaceOnUse" xlink:href="#id1" x1="1334.1" y1="690.406" x2="1334.1" y2="241.654">
  </linearGradient>
  <linearGradient id="id10" gradientUnits="userSpaceOnUse" xlink:href="#id0" x1="1334.11" y1="338.043" x2="1334.11" y2="593.996">
  </linearGradient>
  <linearGradient id="id11" gradientUnits="userSpaceOnUse" xlink:href="#id3" x1="1334.1" y1="205.193" x2="1334.1" y2="726.87">
  </linearGradient>
  <linearGradient id="id12" gradientUnits="userSpaceOnUse" xlink:href="#id3" x1="450.913" y1="1281.94" x2="450.913" y2="1532.36">
  </linearGradient>
  <linearGradient id="id13" gradientUnits="userSpaceOnUse" xlink:href="#id7" x1="484.154" y1="896.402" x2="484.154" y2="595.937">
  </linearGradient>
 </defs>
 <g id="Layer_x0020_1">
  <metadata id="CorelCorpID_0Corel-Layer"/>
  <path class="fil0" d="M1334 839c-22,0 -43,-11 -58,-31l-25 -32 -38 16c-10,4 -20,6 -31,6 -36,0 -64,-26 -69,-65l-6 -40 -40 -5c-25,-4 -44,-16 -56,-36 -11,-19 -12,-42 -2,-65l15 -38 -32 -25c-20,-15 -30,-36 -30,-58 0,-22 10,-43 30,-58l32 -25 -15 -38c-10,-23 -9,-46 2,-65 12,-19 31,-32 56,-35l40 -6 6 -40c5,-39 33,-65 69,-65 11,0 21,2 31,6l38 16 25 -32c15,-20 36,-31 58,-31 22,0 43,11 58,31l25 32 38 -16c10,-4 21,-6 31,-6 36,0 64,26 70,65l5 40 41 6c24,3 44,16 55,35 11,19 12,42 3,65l-15 38 31 25c20,15 31,36 31,58 0,22 -11,43 -31,58l-31 25 15 38c9,23 8,46 -3,65 -11,20 -31,32 -55,36l-41 5 -5 40c-6,39 -34,65 -70,65 -10,0 -21,-2 -31,-6l-38 -16 -25 32c-15,20 -36,31 -58,31z"/>
  <path class="fil1" d="M1334 727c-144,0 -261,-117 -261,-261 0,-144 117,-261 261,-261 144,0 261,117 261,261 0,144 -117,261 -261,261z"/>
  <path class="fil2" d="M1334 690c-124,0 -224,-100 -224,-224 0,-124 100,-224 224,-224 124,0 224,100 224,224 0,124 -100,224 -224,224z"/>
  <path class="fil3" d="M1305 594c-2,0 -3,0 -5,-1 -10,-2 -16,-13 -13,-23l58 -218c3,-10 13,-16 23,-13 10,2 16,13 14,23l-59 218c-2,8 -10,14 -18,14z"/>
  <path class="fil4" d="M1253 454c-5,0 -11,-1 -16,-2 -15,-4 -28,-14 -36,-28 -8,-14 -10,-30 -6,-46 7,-26 31,-44 58,-44 5,0 10,0 15,2 16,4 29,14 37,28 8,14 10,30 6,45 -7,27 -31,45 -58,45zm0 -83c-10,0 -19,7 -22,17 -1,6 -1,12 2,17 3,5 8,9 14,11 12,3 24,-5 28,-16 1,-6 0,-12 -3,-17 -3,-6 -7,-9 -13,-11 -2,0 -4,-1 -6,-1z"/>
  <path class="fil5" d="M1415 598c-5,0 -10,0 -15,-2 -32,-8 -51,-41 -43,-73 7,-27 31,-45 58,-45 6,0 11,1 16,2 32,9 51,42 42,74 -7,26 -30,44 -58,44zm0 -82c-10,0 -19,7 -21,16 -4,12 4,25 16,28 11,3 24,-4 27,-16 3,-12 -4,-24 -16,-28 -2,0 -4,0 -6,0z"/>
  <path class="fil6" d="M537 1613c-35,0 -72,-14 -100,-48l-205 -251c-12,-15 -10,-37 5,-49 49,-40 -80,81 163,-80 16,-10 37,-6 48,10l170 256c43,65 20,117 -13,141 -19,14 -43,21 -68,21z"/>
  <polygon class="fil7" points="411,1532 302,1400 506,1282 600,1423 "/>
  <path class="fil8" d="M252 848l383 -518c7,-9 19,-14 30,-14 12,1 23,8 29,18l436 755c6,11 6,23 1,33 -5,11 -16,18 -27,19l-640 73 -212 -366z"/>
  <path class="fil9" d="M212 1327c-76,0 -146,-40 -184,-105 -58,-101 -23,-231 78,-289l146 -85 212 366 -147 85c-32,18 -68,28 -105,28z"/>
  <path class="fil10" d="M184 1198c-12,0 -23,-6 -30,-17l-27 -48c-10,-17 -4,-38 13,-48 16,-9 38,-3 47,13l28 48c9,16 4,38 -13,47 -6,3 -12,5 -18,5z"/>
  <path class="fil11" d="M577 410l429 743 98 -12c11,-1 22,-8 27,-19 5,-10 5,-22 -1,-33l-436 -755c-6,-10 -17,-17 -29,-18 -11,0 -23,5 -30,14l-58 80z"/>
  <path class="fil12" d="M352 892c-6,6 -15,6 -21,0 -6,-6 -5,-15 1,-21l285 -271c6,-6 15,-5 20,0 6,6 6,15 0,21l-285 271z"/>
  <path class="fil13" d="M487 1141c-8,2 -16,-3 -18,-10 -2,-8 2,-16 10,-18l377 -112c8,-2 16,2 18,10 3,8 -2,16 -9,18l-378 112z"/>
 </g>
</svg>
