<?xml version="1.0" encoding="UTF-8" standalone="no"?> <svg id="Flat_gradient" data-name="Flat gradient" xmlns="http://www.w3.org/2000/svg" xmlns:xlink="http://www.w3.org/1999/xlink" viewBox="0 0 64 64"><defs><style>.cls-1{fill:url(#linear-gradient);}</style><linearGradient id="linear-gradient" x1="4.79999" y1="32" x2="59.20001" y2="32" gradientUnits="userSpaceOnUse"><stop offset="0" stop-color="#9cffac"/><stop offset="1" stop-color="#00b59c"/></linearGradient></defs><title>1</title><path class="cls-1" d="M59.2,59a1.003,1.003,0,0,1-1,1H5.8a1,1,0,1,1,0-2H8.5V38.99a1.99946,1.99946,0,0,1,2-2h5.33a1.99947,1.99947,0,0,1,2,2V58h3.23V46.13a2.00587,2.00587,0,0,1,2-2h5.32a1.99943,1.99943,0,0,1,2,2V58h3.24V29.36a1.9931,1.9931,0,0,1,2-2h5.32a1.99946,1.99946,0,0,1,2,2V58h3.23V16.64a2.00588,2.00588,0,0,1,2-2H53.5a2.00587,2.00587,0,0,1,2,2V58h2.7A1.003,1.003,0,0,1,59.2,59ZM13.17,32.38a3.85791,3.85791,0,0,0,2.08-.59l6.48,5.99a4.01785,4.01785,0,1,0,7.33-2.69l7.77-12.68a3.89292,3.89292,0,0,0,1.45.27,4.02664,4.02664,0,0,0,4.02-4.02,3.9452,3.9452,0,0,0-.77-2.36l6.97-5.02a3.91381,3.91381,0,0,0,2.33.76,4.02951,4.02951,0,1,0-3.62-2.3L39.93,15a3.94182,3.94182,0,0,0-1.65-.36,4.02022,4.02022,0,0,0-4.02,4.02,3.94156,3.94156,0,0,0,.95,2.58l-7.68,12.5A3.81515,3.81515,0,0,0,25.72,33.3a4.00537,4.00537,0,0,0-3.56,2.16l-5.52-5.11a3.88082,3.88082,0,0,0,.54-1.99,4.015,4.015,0,1,0-4.01,4.02Z"/></svg>