<svg xmlns="http://www.w3.org/2000/svg" xml:space="preserve" width="1.70666in" height="1.70666in" version="1.1" style="shape-rendering:geometricPrecision; text-rendering:geometricPrecision; image-rendering:optimizeQuality; fill-rule:evenodd; clip-rule:evenodd" viewBox="0 0 1707 1707" xmlns:xlink="http://www.w3.org/1999/xlink">
 <defs>
  <style type="text/css">
   
    .fil0 {fill:black}
   
  </style>
 </defs>
 <g id="Layer_x0020_1">
  <metadata id="CorelCorpID_0Corel-Layer"></metadata>
  <g id="_470065000">
   <g>
    <path class="fil0" d="M996 768c-14,0 -25,-11 -25,-25 0,-167 42,-222 78,-271 27,-35 47,-62 47,-136 0,-132 -107,-240 -240,-240 -132,0 -239,107 -239,240 0,74 21,101 47,136 37,49 77,104 77,271 0,14 -11,25 -25,25 -14,0 -25,-11 -25,-25 0,-151 -35,-197 -68,-242 -28,-37 -57,-76 -57,-165 0,-158 129,-289 287,-289 163,2 292,131 292,290 0,89 -29,128 -57,166 -33,44 -68,90 -68,241 0,14 -10,24 -24,24z" id="id_101" style="fill: rgb(255, 255, 255);"></path>
   </g>
   <g>
    <path class="fil0" d="M691 400c-14,0 -25,-11 -25,-25 0,-125 103,-226 228,-226 13,0 25,11 25,25 0,13 -12,25 -25,25 -99,0 -180,80 -180,179 0,12 -11,22 -23,22z" id="id_102" style="fill: rgb(255, 255, 255);"></path>
   </g>
   <g>
    <path class="fil0" d="M1041 846l-365 0c-35,0 -64,-28 -64,-63 0,-35 27,-64 64,-64l365 0c35,0 64,28 64,64 -2,35 -29,63 -64,63zm-365 -78c-7,0 -16,5 -16,15 0,7 7,14 16,14l365 0c8,0 15,-7 15,-14 0,-8 -7,-15 -15,-15l-365 0z" id="id_103" style="fill: rgb(255, 255, 255);"></path>
   </g>
   <g>
    <path class="fil0" d="M885 923l-55 0c-56,0 -102,-45 -102,-102 0,-14 11,-25 25,-25 14,0 25,11 25,25 0,29 24,54 53,54l56 0c29,0 54,-24 54,-54 0,-14 11,-25 25,-25 14,0 25,11 25,25 -3,57 -49,102 -106,102z" id="id_104" style="fill: rgb(255, 255, 255);"></path>
   </g>
   <g>
    <path class="fil0" d="M857 768c-13,0 -24,-11 -24,-25l0 -219c0,-9 4,-17 12,-21l86 -50c11,-7 26,-3 33,8 7,11 3,26 -8,33l-75 43 0 207c0,14 -10,24 -24,24z" id="id_105" style="fill: rgb(255, 255, 255);"></path>
   </g>
   <g>
    <path class="fil0" d="M857 547c-4,0 -8,-1 -12,-3l-86 -50c-11,-7 -15,-22 -8,-33 7,-11 22,-15 33,-8l86 50c11,7 15,22 8,33 -4,7 -12,11 -21,11z" id="id_106" style="fill: rgb(255, 255, 255);"></path>
   </g>
   <g>
    <path class="fil0" d="M430 1504c-14,0 -25,-11 -25,-25 0,-167 40,-222 76,-271 27,-35 47,-62 47,-136 0,-132 -107,-239 -238,-239 -132,0 -241,107 -241,239 0,74 21,101 48,136 36,49 77,104 77,271 0,14 -11,25 -25,25 -14,0 -25,-11 -25,-25 0,-151 -34,-197 -68,-242 -28,-37 -57,-76 -57,-165 0,-158 129,-287 289,-287 158,0 288,129 288,287 0,89 -30,128 -57,165 -34,45 -68,91 -68,242 4,14 -7,25 -21,25z" id="id_107" style="fill: rgb(255, 255, 255);"></path>
   </g>
   <g>
    <path class="fil0" d="M123 1137c-14,0 -25,-11 -25,-25 0,-126 103,-229 229,-229 14,0 25,11 25,25 0,14 -11,25 -25,25 -100,0 -180,81 -180,181 1,12 -10,23 -24,23z" id="id_108" style="fill: rgb(255, 255, 255);"></path>
   </g>
   <g>
    <path class="fil0" d="M473 1582l-364 0c-35,0 -64,-29 -64,-64 0,-35 29,-64 64,-64l365 0c35,0 64,29 64,64 0,35 -30,64 -65,64zm-364 -78c-7,0 -15,7 -15,15 0,9 7,15 15,15l365 0c7,0 16,-6 16,-15 0,-8 -7,-15 -16,-15l-365 0z" id="id_109" style="fill: rgb(255, 255, 255);"></path>
   </g>
   <g>
    <path class="fil0" d="M320 1659l-57 0c-55,0 -101,-45 -101,-101 0,-14 11,-25 25,-25 14,0 25,11 25,25 0,29 23,53 53,53l56 0c30,0 53,-24 53,-53 0,-14 11,-25 25,-25 14,0 25,11 25,25 -4,56 -48,101 -104,101z" id="id_110" style="fill: rgb(255, 255, 255);"></path>
   </g>
   <g>
    <path class="fil0" d="M291 1504c-14,0 -25,-11 -25,-25l0 -219c0,-9 4,-17 12,-21l85 -50c11,-7 27,-3 33,8 7,11 3,26 -8,33l-72 43 0 207c0,13 -11,24 -25,24z" id="id_111" style="fill: rgb(255, 255, 255);"></path>
   </g>
   <g>
    <path class="fil0" d="M291 1283c-4,0 -8,-1 -13,-3l-86 -50c-11,-7 -15,-22 -8,-33 7,-11 22,-15 33,-8l86 50c12,7 16,22 9,33 -4,7 -13,11 -21,11z" id="id_112" style="fill: rgb(255, 255, 255);"></path>
   </g>
   <g>
    <path class="fil0" d="M1563 1504c-14,0 -25,-11 -25,-25 0,-167 40,-222 76,-271 27,-35 48,-62 48,-136 0,-132 -107,-239 -239,-239 -132,0 -239,107 -239,239 0,74 21,101 47,136 36,49 76,104 76,271 0,14 -11,25 -25,25 -13,0 -25,-11 -25,-25 0,-151 -34,-197 -68,-242 -27,-37 -57,-76 -57,-165 0,-158 130,-287 288,-287 158,0 287,129 287,287 0,89 -29,128 -57,165 -33,45 -68,91 -68,242 6,14 -5,25 -19,25z" id="id_113" style="fill: rgb(255, 255, 255);"></path>
   </g>
   <g>
    <path class="fil0" d="M1256 1137c-14,0 -25,-11 -25,-25 0,-126 103,-229 229,-229 14,0 25,11 25,25 0,14 -11,25 -25,25 -100,0 -180,81 -180,181 1,12 -10,23 -24,23z" id="id_114" style="fill: rgb(255, 255, 255);"></path>
   </g>
   <g>
    <path class="fil0" d="M1607 1582l-365 0c-35,0 -64,-28 -64,-64 0,-36 28,-64 64,-64l365 0c35,0 63,28 63,64 0,36 -29,64 -63,64zm-365 -78c-10,0 -15,7 -15,15 0,9 5,15 15,15l365 0c7,0 14,-6 14,-15 0,-8 -7,-15 -14,-15l-365 0z" id="id_115" style="fill: rgb(255, 255, 255);"></path>
   </g>
   <g>
    <path class="fil0" d="M1452 1659l-56 0c-55,0 -101,-45 -101,-101 0,-14 11,-25 25,-25 14,0 25,11 25,25 0,29 24,53 53,53l55 0c29,0 54,-24 54,-53 0,-14 11,-25 25,-25 14,0 25,11 25,25 -2,56 -48,101 -105,101z" id="id_116" style="fill: rgb(255, 255, 255);"></path>
   </g>
   <g>
    <path class="fil0" d="M1424 1504c-14,0 -25,-11 -25,-25l0 -219c0,-9 4,-17 13,-21l86 -50c11,-7 26,-3 33,8 7,11 3,26 -8,33l-74 43 0 207c-1,13 -11,24 -25,24z" id="id_117" style="fill: rgb(255, 255, 255);"></path>
   </g>
   <g>
    <path class="fil0" d="M1424 1283c-4,0 -8,-1 -12,-3l-87 -50c-11,-7 -15,-22 -8,-33 7,-11 22,-15 33,-8l87 50c11,7 15,22 8,33 -4,7 -13,11 -21,11z" id="id_118" style="fill: rgb(255, 255, 255);"></path>
   </g>
   <g>
    <path class="fil0" d="M691 1543l-179 0c-14,0 -25,-11 -25,-25 0,-14 11,-25 25,-25l179 0c78,0 142,-64 142,-143l0 -452c0,-13 11,-25 24,-25 14,0 24,13 24,25l0 453c0,106 -85,192 -190,192z" id="id_119" style="fill: rgb(255, 255, 255);"></path>
   </g>
   <g>
    <path class="fil0" d="M1203 1543l-179 0c-105,0 -191,-86 -191,-192 0,-14 11,-25 24,-25 14,0 25,11 25,25 0,79 64,143 144,143l179 0c14,0 25,11 25,25 0,14 -13,24 -27,24z" id="id_120" style="fill: rgb(255, 255, 255);"></path>
   </g>
  </g>
 </g>
</svg>