<svg xmlns="http://www.w3.org/2000/svg" xml:space="preserve" width="1.70666in" height="1.70666in" version="1.1" style="shape-rendering:geometricPrecision; text-rendering:geometricPrecision; image-rendering:optimizeQuality; fill-rule:evenodd; clip-rule:evenodd" viewBox="0 0 1707 1707" xmlns:xlink="http://www.w3.org/1999/xlink">
 <defs>
  <style type="text/css">
   
    .fil1 {fill:#8DD7BE}
    .fil2 {fill:#EE52B1}
    .fil0 {fill:#F6A40E}
   
  </style>
 </defs>
 <g id="Layer_x0020_1">
  <metadata id="CorelCorpID_0Corel-Layer"></metadata>
  <path class="fil0" d="M1561 1419l-1120 0c-12,0 -21,-10 -21,-22l0 -1375c0,-12 9,-22 21,-22l1120 0c12,0 21,10 21,22l0 1375c0,12 -9,22 -21,22zm-1098 -44l1076 0 0 -1332 -1076 0 0 1332z" id="id_148" style="fill: rgb(0, 212, 166);"></path>
  <path class="fil0" d="M149 1533c-1,0 -1,0 -2,0 -11,-1 -20,-10 -20,-21l0 -1344c0,-93 76,-168 168,-168l146 0c12,0 22,10 22,22l0 1375c0,12 -10,22 -22,22l-151 0c-58,0 -108,41 -120,97 -2,10 -11,17 -21,17zm146 -1490c-68,0 -124,56 -124,125l0 1258c30,-31 73,-51 119,-51l130 0 0 -1332 -125 0z" id="id_149" style="fill: rgb(0, 212, 166);"></path>
  <path class="fil1" d="M1561 1707l-1271 0c-91,0 -166,-75 -166,-166 0,-91 75,-166 166,-166l1271 0c12,0 21,10 21,22l0 288c0,12 -9,22 -21,22zm-1271 -288c-67,0 -122,55 -122,122 0,67 55,122 122,122l1249 0 0 -244 -1249 0z" id="id_150" style="fill: rgb(184, 184, 184);"></path>
  <path class="fil2" d="M887 812c-61,0 -108,-26 -130,-72 -33,-70 1,-173 93,-283 7,-7 18,-10 26,-5 9,4 14,14 12,24 -2,12 -4,26 -4,40 17,-61 45,-106 86,-137 48,-35 107,-47 163,-58 73,-14 142,-27 190,-87 5,-6 12,-9 20,-8 8,1 14,6 17,13 3,6 62,148 -7,254 -37,59 -106,94 -203,105 9,5 19,8 28,7 9,0 18,4 22,12 4,8 3,18 -4,25 -97,107 -212,170 -309,170zm-44 -272c-49,73 -67,139 -47,182 15,30 47,47 91,47 76,0 168,-47 250,-129 -33,-15 -54,-46 -56,-48 -4,-6 -5,-15 -1,-22 4,-7 11,-11 19,-11 109,-3 182,-33 218,-89 38,-60 26,-138 14,-181 -55,49 -123,62 -189,75 -110,21 -204,39 -227,221 -1,6 -4,12 -9,15 -6,4 -12,5 -18,3 -30,-9 -42,-36 -45,-63z" id="id_151"></path>
  <path class="fil2" d="M557 1026c-6,0 -11,-2 -15,-6 -9,-9 -9,-22 0,-31l564 -564c8,-9 22,-9 31,0 8,8 8,22 0,31l-565 564c-4,4 -10,6 -15,6z" id="id_152"></path>
  <path class="fil2" d="M1445 1057l-750 0c-12,0 -22,-9 -22,-21 0,-12 10,-22 22,-22l750 0c12,0 22,10 22,22 0,12 -10,21 -22,21z" id="id_153"></path>
  <path class="fil2" d="M1445 1193l-750 0c-12,0 -22,-10 -22,-22 0,-12 10,-22 22,-22l750 0c12,0 22,10 22,22 0,12 -10,22 -22,22z" id="id_154"></path>
 </g>
</svg>