<svg xmlns="http://www.w3.org/2000/svg" xml:space="preserve" width="3.06305in" height="2.32204in" version="1.1" style="shape-rendering:geometricPrecision; text-rendering:geometricPrecision; image-rendering:optimizeQuality; fill-rule:evenodd; clip-rule:evenodd" viewBox="0 0 3063.05 2322.04" xmlns:xlink="http://www.w3.org/1999/xlink">
 <defs>
  <style type="text/css">
   
    .fil0 {fill:black;fill-rule:nonzero}
   
  </style>
 </defs>
 <g id="Layer_x0020_1">
  <metadata id="CorelCorpID_0Corel-Layer"></metadata>
  <path class="fil0" d="M260.11 265.58l0 -241.44c484.47,-63.72 898.28,-11.93 1298.47,284.77 400.21,-296.69 813.98,-348.5 1298.48,-284.77l0 241.44 205.99 0 0 2056.46 -3063.05 0 0 -2056.46 260.11 0zm1341.76 118.72l0 1770.96c340,-306.85 729.99,-364.53 1168.6,-274.44l0 -1780.74c-432.02,-50.09 -816.26,19.76 -1168.6,284.22zm-86.58 1770.96l0 -1770.96c-352.34,-264.46 -736.59,-334.31 -1168.6,-284.22l0 1780.74c438.62,-90.09 828.59,-32.42 1168.6,274.44zm-1255.19 -1803.09l-173.53 0 0 1883.3 1365.04 0c-359.58,-323.46 -734.76,-351.83 -1191.51,-246.74l0 -1636.56zm2716.36 0l-119.41 0 0 1636.56c-456.76,-105.09 -831.93,-76.72 -1191.51,246.74l1310.92 0 0 -1883.3z" id="id_101" style="fill: rgb(255, 255, 255);"></path>
 </g>
</svg>