<?xml version="1.0" encoding="UTF-8"?>
<!DOCTYPE svg PUBLIC "-//W3C//DTD SVG 1.1//EN" "http://www.w3.org/Graphics/SVG/1.1/DTD/svg11.dtd">
<!-- Creator: CorelDRAW -->
<svg xmlns="http://www.w3.org/2000/svg" xml:space="preserve" width="1.70666in" height="1.70666in" version="1.1" style="shape-rendering:geometricPrecision; text-rendering:geometricPrecision; image-rendering:optimizeQuality; fill-rule:evenodd; clip-rule:evenodd"
viewBox="0 0 1707 1707"
 xmlns:xlink="http://www.w3.org/1999/xlink">
 <defs>
  <style type="text/css">
   <![CDATA[
    .fil5 {fill:#1AC4AE}
    .fil0 {fill:#33D5C0}
    .fil3 {fill:#F4594D}
    .fil4 {fill:#F7B657}
    .fil2 {fill:#FE6D5D}
    .fil1 {fill:#FFCF70}
   ]]>
  </style>
 </defs>
 <g id="Layer_x0020_1">
  <metadata id="CorelCorpID_0Corel-Layer"/>
  <g id="_363844480">
   <path class="fil0" d="M853 1707c-4,0 -7,-1 -11,-3l-757 -415c-8,-4 -12,-12 -12,-21 0,-8 4,-16 12,-20l378 -208c12,-6 26,-2 32,10 0,1 1,2 1,2l714 0c1,0 1,-1 2,-2 6,-12 20,-16 31,-10l379 208c8,4 12,12 12,20 0,9 -4,17 -12,21l-757 415c-4,2 -8,3 -12,3z"/>
   <path class="fil1" d="M853 1292c-4,0 -7,-1 -11,-3l-757 -415c-8,-4 -12,-12 -12,-21 0,-8 4,-16 12,-20l378 -208c10,-5 21,-3 29,5l723 0c7,-8 19,-10 28,-5l379 208c8,4 12,12 12,20 0,9 -4,17 -12,21l-757 415c-4,2 -8,3 -12,3z"/>
   <path class="fil2" d="M853 877c-4,0 -7,-1 -11,-3l-757 -415c-8,-4 -12,-12 -12,-21 0,-8 4,-16 12,-20l757 -415c7,-4 16,-4 23,0l757 415c8,4 12,12 12,20 0,9 -4,17 -12,21l-757 415c-4,2 -8,3 -12,3z"/>
  </g>
  <path class="fil3" d="M1622 418l-757 -415c-7,-4 -16,-4 -23,0l-66 36 692 379c7,4 12,12 12,20 0,9 -5,17 -12,21l-312 171 -29 16 77 42 77 -42 341 -187c8,-4 12,-12 12,-21 0,-8 -4,-16 -12,-20z"/>
  <path class="fil4" d="M1622 833l-341 -187 -77 42 264 145c7,4 12,12 12,20 0,9 -5,17 -12,21l-326 178 -15 9 77 42 77 -42 341 -187c8,-4 12,-12 12,-21 0,-8 -4,-16 -12,-20z"/>
  <path class="fil5" d="M1622 1248l-341 -187 -77 42 264 145c7,4 12,12 12,20 0,9 -5,17 -12,21l-692 379 66 36c4,2 7,3 11,3 4,0 8,-1 12,-3l757 -415c8,-4 12,-12 12,-21 0,-8 -4,-16 -12,-20z"/>
 </g>
</svg>
