<svg xmlns="http://www.w3.org/2000/svg" xml:space="preserve" width="1.70666in" height="1.70666in" version="1.1" style="shape-rendering:geometricPrecision; text-rendering:geometricPrecision; image-rendering:optimizeQuality; fill-rule:evenodd; clip-rule:evenodd" viewBox="0 0 1706.66 1706.66" xmlns:xlink="http://www.w3.org/1999/xlink" xmlns:xodm="http://www.corel.com/coreldraw/odm/2003">
 <defs>
  <style type="text/css">
   
    .fil0 {fill:url(#id0)}
   
  </style>
  <linearGradient id="id0" gradientUnits="userSpaceOnUse" x1="32.28" y1="853.33" x2="1674.38" y2="853.33">
   <stop offset="0" style="stop-opacity: 1; stop-color: rgb(3, 165, 214);" id="id_102"></stop>
   <stop offset="1" style="stop-opacity: 1; stop-color: rgb(0, 26, 31);" id="id_103"></stop>
  </linearGradient>
 </defs>
 <g id="Layer_x0020_1">
  <metadata id="CorelCorpID_0Corel-Layer"></metadata>
  <path class="fil0" d="M32.27 1400.94l0 200.07c0,58.29 47.36,105.65 105.65,105.65 58.29,0 105.65,-47.36 105.65,-105.65l0 -200.07 -211.29 0zm1430.83 -1295.3l-0 200.07 211.3 0 0 -200.07c0,-58.32 -47.38,-105.69 -105.8,-105.65 -58.22,0.08 -105.5,47.41 -105.5,105.65zm-368.53 431.92c18.01,32.81 6.37,82.63 -39.61,95.89 -0.21,15.04 -3.24,29.86 -21.3,29.86 -17.45,0 -20.87,-13.74 -21.27,-28.24 -56.04,-11.47 -69.85,-76.56 -36.58,-81.19 26.07,-3.63 20.61,25.52 32.5,35.26 19.78,16.22 66.26,-0.48 49.55,-31.76 -11.34,-21.23 -61.13,-5.54 -84.8,-48.67 -18.33,-33.39 -5.47,-82.98 39.43,-96.28 0.09,-3.11 0.19,-6.08 0.19,-8.79 0,-27.63 41.97,-27.63 41.97,0 0,2.22 0.07,4.62 0.15,7.12 56.49,11.46 70.19,76.5 36.87,81.34 -26.18,3.81 -20.07,-24.82 -32.5,-35.26 -8.05,-6.77 -52.02,-13.95 -52.02,20.11 0,39.18 60.34,11.27 87.43,60.61zm-240 -14.58c0,98.8 80.29,179.09 179.09,179.09 98.8,0 179.09,-80.29 179.09,-179.09 0,-98.8 -80.29,-179.09 -179.09,-179.09 -98.8,0 -179.09,80.29 -179.09,179.09zm-569.04 859.45l0 218.58c0,41.34 -17.1,78.8 -44.63,105.65l1101.68 0c43.28,0 78.39,-35.12 78.39,-78.4l0 -1522.62c0,-41.39 17.12,-78.83 44.63,-105.65l-1101.68 0c-43.28,0 -78.39,35.12 -78.39,78.39l0 1304.04zm830.16 30.89l-524.88 0c-27.63,0 -27.63,-41.97 0,-41.97l524.88 0c27.59,0 27.59,41.97 0,41.97zm92.83 -248.45l-710.39 0c-27.63,0 -27.63,-41.97 0,-41.97l710.39 0c27.59,0 27.59,41.97 0,41.97zm0 -248.31l-710.39 0c-27.63,0 -27.63,-41.97 0,-41.97l710.39 0c27.59,0 27.59,41.97 0,41.97zm-174.87 -172.53c-121.96,0 -221.05,-99.24 -221.05,-221.06 0,-121.82 99.23,-221.06 221.05,-221.06 121.97,0 221.06,99.24 221.06,221.06 0,121.82 -99.24,221.06 -221.06,221.06zm-316.79 -75.92l-218.73 0c-27.66,0 -27.66,-41.97 0,-41.97l218.87 0c27.7,0 27.64,41.97 -0.15,41.97zm0 -248.31l-218.73 0c-27.66,0 -27.66,-41.97 0,-41.97l218.87 0c27.7,0 27.64,41.97 -0.15,41.97z" id="id_101"></path>
 </g>
</svg>