<?xml version="1.0" encoding="UTF-8" standalone="no"?> <svg xmlns="http://www.w3.org/2000/svg" xmlns:xlink="http://www.w3.org/1999/xlink" viewBox="0 0 64 64"><defs><style>.cls-1{fill:url(#linear-gradient);}.cls-2{fill:url(#linear-gradient-2);}</style><linearGradient id="linear-gradient" x1="5.23" y1="35.85" x2="58.65" y2="35.85" gradientUnits="userSpaceOnUse"><stop offset="0" stop-color="#17a6d7"/><stop offset="1" stop-color="#9d31fe"/></linearGradient><linearGradient id="linear-gradient-2" x1="30" y1="13.53" x2="34" y2="13.53" xlink:href="#linear-gradient"/></defs><g id="Layer_77" data-name="Layer 77"><path class="cls-1" d="M40.36,9.8a2,2,0,0,0-1.24,3.8C63.48,22,57.79,57.55,32,58a22.77,22.77,0,0,1-7.12-44.4,2,2,0,1,0-1.24-3.8A26.77,26.77,0,0,0,32,62C62.33,61.46,69,19.73,40.36,9.8Z"/><path class="cls-2" d="M32,25.06a2,2,0,0,0,2-2V4a2,2,0,0,0-4,0V23.06A2,2,0,0,0,32,25.06Z"/></g></svg>