<?xml version="1.0" encoding="UTF-8" standalone="no"?> <svg width="64" height="64" viewBox="0 0 64 64" fill="none" xmlns="http://www.w3.org/2000/svg">
<path d="M18.1301 47C19.1893 46.1872 19.9673 45.063 20.3549 43.7854C20.7425 42.5077 20.7201 41.1408 20.2909 39.8765C19.8618 38.6122 19.0474 37.5141 17.9621 36.7364C16.8768 35.9587 15.5752 35.5405 14.2401 35.5405C12.9049 35.5405 11.6033 35.9587 10.518 36.7364C9.43275 37.5141 8.61834 38.6122 8.18917 39.8765C7.76 41.1408 7.73763 42.5077 8.1252 43.7854C8.51277 45.063 9.29081 46.1872 10.3501 47C8.56278 47.637 6.96089 48.7063 5.68718 50.1126C4.41346 51.5189 3.5075 53.2186 3.05005 55.06C2.99276 55.2491 2.99276 55.4509 3.05005 55.64C3.09842 55.8091 3.18772 55.9636 3.31005 56.09C4.68811 57.6357 6.37741 58.8726 8.26712 59.7195C10.1568 60.5664 12.2042 61.0043 14.2751 61.0043C16.3459 61.0043 18.3933 60.5664 20.283 59.7195C22.1727 58.8726 23.862 57.6357 25.2401 56.09C25.3466 55.9688 25.4223 55.8237 25.4606 55.667C25.4989 55.5103 25.4987 55.3466 25.4601 55.19C25.0207 53.3207 24.1195 51.5916 22.8389 50.1608C21.5583 48.7299 19.9393 47.6432 18.1301 47V47Z" fill="#64B5F6"/>
<path d="M61.0001 55.16C60.5543 53.294 59.6481 51.5695 58.3641 50.1441C57.0802 48.7186 55.4595 47.6377 53.6501 47C54.7093 46.1872 55.4874 45.063 55.8749 43.7854C56.2625 42.5077 56.2401 41.1408 55.811 39.8765C55.3818 38.6122 54.5674 37.5141 53.4821 36.7364C52.3968 35.9587 51.0952 35.5405 49.7601 35.5405C48.4249 35.5405 47.1233 35.9587 46.038 36.7364C44.9528 37.5141 44.1384 38.6122 43.7092 39.8765C43.28 41.1408 43.2576 42.5077 43.6452 43.7854C44.0328 45.063 44.8108 46.1872 45.8701 47C44.0828 47.637 42.4809 48.7063 41.2072 50.1126C39.9335 51.5189 39.0275 53.2186 38.5701 55.06C38.5128 55.2491 38.5128 55.4509 38.5701 55.64C38.6156 55.8103 38.7053 55.9655 38.8301 56.09C40.2081 57.6357 41.8974 58.8726 43.7871 59.7195C45.6768 60.5664 47.7243 61.0043 49.7951 61.0043C51.8659 61.0043 53.9133 60.5664 55.803 59.7195C57.6927 58.8726 59.382 57.6357 60.7601 56.09C60.8666 55.9688 60.9423 55.8237 60.9806 55.667C61.0189 55.5103 61.0187 55.3466 60.9801 55.19L61.0001 55.16Z" fill="#64B5F6"/>
<path d="M43 23.5C43.1066 23.3789 43.1822 23.2337 43.2205 23.077C43.2589 22.9203 43.2587 22.7566 43.22 22.6C42.7723 20.7407 41.8687 19.0221 40.5908 17.5992C39.3128 16.1764 37.7008 15.0941 35.9 14.45C36.9561 13.6376 37.7314 12.515 38.117 11.2396C38.5026 9.96421 38.4792 8.6001 38.0502 7.33867C37.6212 6.07723 36.8079 4.98178 35.7247 4.20601C34.6414 3.43024 33.3424 3.01309 32.01 3.01309C30.6776 3.01309 29.3787 3.43024 28.2954 4.20601C27.2121 4.98178 26.3989 6.07723 25.9698 7.33867C25.5408 8.6001 25.5175 9.96421 25.9031 11.2396C26.2887 12.515 27.0639 13.6376 28.12 14.45C26.333 15.0845 24.731 16.1518 23.4572 17.5565C22.1833 18.9613 21.2773 20.6597 20.82 22.5C20.7682 22.6746 20.765 22.86 20.8109 23.0362C20.8567 23.2124 20.9498 23.3728 21.08 23.5C22.4572 25.0455 24.1456 26.2822 26.0345 27.1291C27.9234 27.9759 29.97 28.4137 32.04 28.4137C34.1101 28.4137 36.1567 27.9759 38.0456 27.1291C39.9344 26.2822 41.6229 25.0455 43 23.5V23.5Z" fill="#64B5F6"/>
<path d="M40.86 43C41.0457 42.9985 41.2274 42.9453 41.3846 42.8464C41.5418 42.7475 41.6683 42.6068 41.75 42.44C41.8199 42.3037 41.8575 42.1532 41.86 42C41.8604 41.8126 41.8081 41.6288 41.7091 41.4697C41.6101 41.3106 41.4683 41.1825 41.3 41.1L33 36.94V30.94C33 30.6748 32.8947 30.4204 32.7071 30.2329C32.5196 30.0454 32.2652 29.94 32 29.94C31.7348 29.94 31.4805 30.0454 31.2929 30.2329C31.1054 30.4204 31 30.6748 31 30.94V36.94L22.7 41.06C22.5783 41.1159 22.4691 41.1957 22.3788 41.2946C22.2886 41.3935 22.2191 41.5095 22.1745 41.6358C22.1299 41.7621 22.1111 41.896 22.1193 42.0297C22.1275 42.1634 22.1624 42.294 22.222 42.4139C22.2816 42.5338 22.3647 42.6406 22.4664 42.7278C22.568 42.8149 22.6861 42.8808 22.8137 42.9215C22.9413 42.9622 23.0758 42.9768 23.2091 42.9645C23.3425 42.9522 23.472 42.9133 23.59 42.85L32 38.68L40.41 42.85C40.5468 42.9334 40.7006 42.9846 40.86 43V43Z" fill="#F7931E"/>
</svg>
