<?xml version="1.0" encoding="UTF-8"?>
<!DOCTYPE svg PUBLIC "-//W3C//DTD SVG 1.1//EN" "http://www.w3.org/Graphics/SVG/1.1/DTD/svg11.dtd">
<!-- Creator: CorelDRAW -->
<svg xmlns="http://www.w3.org/2000/svg" xml:space="preserve" width="7.11111in" height="7.11111in" version="1.1" style="shape-rendering:geometricPrecision; text-rendering:geometricPrecision; image-rendering:optimizeQuality; fill-rule:evenodd; clip-rule:evenodd"
viewBox="0 0 7111 7111"
 xmlns:xlink="http://www.w3.org/1999/xlink">
 <defs>
  <style type="text/css">
   <![CDATA[
    .fil14 {fill:#35495E}
    .fil5 {fill:#3C3B41}
    .fil10 {fill:#802D40}
    .fil2 {fill:#E71A5A}
    .fil13 {fill:#ECF0F1}
    .fil9 {fill:#F09372}
    .fil11 {fill:#FB7B76}
    .fil1 {fill:#FE892E}
    .fil4 {fill:#FFB88A}
    .fil8 {fill:#FFC473}
    .fil3 {fill:#FFCC99}
    .fil6 {fill:#FFD400}
    .fil0 {fill:#FFE4AF}
    .fil12 {fill:#805333;fill-rule:nonzero}
    .fil7 {fill:#FFAA20;fill-rule:nonzero}
   ]]>
  </style>
 </defs>
 <g id="Layer_x0020_1">
  <metadata id="CorelCorpID_0Corel-Layer"/>
  <g id="_308949128">
   <path class="fil0" d="M3014 2l3959 0c69,0 125,56 125,125l0 2220c0,69 -56,125 -125,125l-3959 0c-69,0 -125,-56 -125,-125l0 -2220c0,-69 56,-125 125,-125z"/>
   <path class="fil1" d="M6539 1789c69,0 125,56 125,125 0,69 -56,125 -125,125l-3091 0c-69,0 -125,-56 -125,-125l0 -1353c0,-69 56,-125 125,-125 69,0 125,56 125,125l0 1228 2966 0z"/>
   <path class="fil2" d="M4834 436l507 0c69,0 125,56 125,125l0 507c0,69 -56,125 -125,125l-507 0c-69,0 -125,-56 -125,-125l0 -507c0,-69 56,-125 125,-125zm-979 0l507 0c69,0 125,56 125,125l0 507c0,69 -56,125 -125,125l-507 0c-69,0 -125,-56 -125,-125l0 -507c0,-69 56,-125 125,-125z"/>
   <path class="fil1" d="M5123 1616c-69,0 -125,-56 -125,-125 0,-69 56,-125 125,-125l1416 0c69,0 125,56 125,125 0,69 -56,125 -125,125l-1416 0z"/>
   <g>
    <g>
     <path class="fil3" d="M4646 3919l1432 0 0 465c0,394 -322,716 -716,716l0 0c-394,0 -716,-322 -716,-716l0 -465z"/>
     <path class="fil4" d="M5362 5952c310,0 562,-252 562,-562l-214 -381c-103,58 -222,91 -348,91 -126,0 -245,-33 -348,-91l-214 381c0,310 252,562 562,562z"/>
     <path class="fil5" d="M3653 7109l3418 0 0 -860c0,-472 -387,-859 -860,-859l-287 0c0,310 -252,562 -562,562 -310,0 -562,-252 -562,-562l-288 0c-472,0 -859,387 -859,859l0 860z"/>
     <path class="fil6" d="M4534 3919l1656 0 0 -421c0,-362 -282,-661 -636,-690l0 -218 -384 0 0 218c-355,29 -636,328 -636,690l0 421z"/>
     <circle class="fil7" cx="5362" cy="3363" r="236"/>
     <path class="fil7" d="M4335 4082c-90,0 -164,-73 -164,-163 0,-90 74,-163 164,-163l2054 0c90,0 163,73 163,163 0,90 -73,163 -163,163l-2054 0z"/>
     <polygon class="fil7" points="5554,2808 5554,2590 5170,2590 5170,2808 "/>
     <polygon class="fil8" points="4280,7109 4280,6588 3653,6588 3653,7109 "/>
     <polygon class="fil8" points="7071,7109 7071,6588 6443,6588 6443,7109 "/>
     <path class="fil6" d="M4378 7109l1967 0 0 -825c0,-129 -106,-235 -235,-235l-1497 0c-129,0 -235,106 -235,235l0 825z"/>
     <g>
      <path class="fil7" d="M4507 5390l217 0 0 849c0,60 -49,108 -109,108l0 0c-59,0 -108,-48 -108,-108l0 -849z"/>
      <path class="fil7" d="M5999 5390l218 0 0 849c0,60 -49,108 -109,108l0 0c-60,0 -109,-48 -109,-108l0 -849z"/>
     </g>
     <g>
      <circle class="fil5" cx="4612" cy="6201" r="61"/>
      <circle class="fil5" cx="6112" cy="6201" r="61"/>
     </g>
     <rect class="fil9" x="5278" y="4563" width="166.939" height="77.6835" rx="39" ry="39"/>
     <path class="fil10" d="M5243 4761l234 0 0 49c0,64 -52,117 -117,117l0 0c-64,0 -117,-53 -117,-117l0 -49z"/>
     <path class="fil11" d="M5452 4883c-22,27 -55,44 -92,44l0 0c-37,0 -70,-17 -91,-44 21,-27 54,-44 91,-44 37,0 70,17 92,44z"/>
     <path class="fil12" d="M4932 4284c-9,18 -30,25 -47,17 -18,-9 -25,-30 -17,-47 16,-32 47,-58 89,-76 37,-16 84,-25 133,-25 29,0 57,3 83,9 27,6 52,15 73,27 17,10 23,31 14,48 -9,17 -31,23 -48,14 -15,-9 -34,-16 -54,-20 -21,-5 -44,-8 -68,-8 -40,0 -77,8 -106,20 -26,11 -44,25 -52,41z"/>
     <path class="fil13" d="M5089 4329c62,0 112,50 112,112 0,28 -11,54 -28,74l-166 0c-1,0 -1,0 -2,0 -17,-20 -27,-46 -27,-74 0,-62 50,-112 111,-112z"/>
     <circle class="fil14" cx="5112" cy="4444" r="54"/>
     <rect class="fil4" x="4975" y="4515" width="238.013" height="62.8105" rx="31" ry="31"/>
     <path class="fil12" d="M5792 4284c8,18 29,25 47,17 17,-9 25,-30 16,-47 -15,-32 -47,-58 -88,-76 -38,-16 -84,-25 -134,-25 -28,0 -56,3 -83,9 -26,6 -51,15 -73,27 -17,10 -23,31 -13,48 9,17 30,23 47,14 16,-9 34,-16 55,-20 21,-5 44,-8 67,-8 40,0 77,8 106,20 26,11 45,25 53,41z"/>
     <path class="fil13" d="M5634 4329c-61,0 -111,50 -111,112 0,28 10,54 27,74l167 0c0,0 1,0 1,0 17,-20 28,-46 28,-74 0,-62 -50,-112 -112,-112z"/>
     <circle class="fil14" cx="5612" cy="4444" r="54"/>
     <rect class="fil4" x="5510" y="4515" width="238.013" height="62.8105" rx="31" ry="31"/>
    </g>
    <g>
     <path class="fil3" d="M1125 3537l1604 0 0 520c0,442 -361,802 -802,802l0 0c-441,0 -802,-360 -802,-802l0 -520z"/>
     <path class="fil4" d="M1927 5813c348,0 630,-282 630,-629l-240 -426c-115,64 -248,101 -390,101 -141,0 -274,-37 -390,-101l-239 426c0,347 282,629 629,629z"/>
     <path class="fil5" d="M14 7109l3827 0 0 -963c0,-529 -433,-962 -962,-962l-322 0c0,347 -282,629 -630,629 -347,0 -629,-282 -629,-629l-322 0c-529,0 -962,433 -962,962l0 963z"/>
     <path class="fil6" d="M1000 3537l1855 0 0 -472c0,-406 -315,-741 -713,-773l0 -244 -429 0 0 244c-398,32 -713,367 -713,773l0 472z"/>
     <circle class="fil7" cx="1927" cy="2914" r="264"/>
     <path class="fil7" d="M777 3719c-101,0 -183,-82 -183,-182 0,-101 82,-183 183,-183l2301 0c101,0 183,82 183,183 0,100 -82,182 -183,182l-2301 0z"/>
     <polygon class="fil7" points="2142,2292 2142,2048 1713,2048 1713,2292 "/>
     <polygon class="fil8" points="716,7109 716,6526 14,6526 14,7109 "/>
     <polygon class="fil8" points="3841,7109 3841,6526 3139,6526 3139,7109 "/>
     <path class="fil6" d="M826 7109l2203 0 0 -924c0,-145 -119,-263 -263,-263l-1677 0c-145,0 -263,118 -263,263l0 924z"/>
     <g>
      <path class="fil7" d="M970 5184l243 0 0 950c0,67 -54,122 -122,122l0 0c-67,0 -121,-55 -121,-122l0 -950z"/>
      <path class="fil7" d="M2641 5184l244 0 0 950c0,67 -55,122 -122,122l0 0c-67,0 -122,-55 -122,-122l0 -950z"/>
     </g>
     <g>
      <circle class="fil5" cx="1087" cy="6092" r="69"/>
      <circle class="fil5" cx="2767" cy="6092" r="69"/>
     </g>
     <rect class="fil9" x="1834" y="4258" width="186.972" height="87.0054" rx="44" ry="44"/>
     <path class="fil10" d="M1794 4479l263 0 0 55c0,72 -59,131 -131,131l0 0c-73,0 -132,-59 -132,-131l0 -55z"/>
     <path class="fil11" d="M2028 4616c-24,30 -61,49 -102,49l0 0c-42,0 -79,-19 -103,-49 24,-31 61,-50 103,-50 41,0 78,19 102,50z"/>
     <path class="fil12" d="M1446 3945c-10,20 -33,28 -53,19 -19,-10 -28,-33 -18,-53 17,-36 53,-65 99,-84 42,-18 94,-29 149,-29 32,0 64,4 93,11 30,6 58,17 82,30 19,11 26,35 15,54 -10,19 -34,25 -53,15 -18,-10 -38,-17 -61,-23 -24,-5 -49,-8 -76,-8 -44,0 -86,8 -119,22 -28,12 -50,28 -58,46z"/>
     <path class="fil13" d="M1622 3996c69,0 125,56 125,125 0,31 -12,60 -31,82l-186 0c-1,0 -1,0 -2,0 -19,-22 -31,-51 -31,-82 0,-69 56,-125 125,-125z"/>
     <circle class="fil14" cx="1647" cy="4125" r="60"/>
     <rect class="fil4" x="1494" y="4203" width="266.575" height="70.3477" rx="35" ry="35"/>
     <path class="fil12" d="M2409 3945c9,20 33,28 53,19 19,-10 27,-33 18,-53 -17,-36 -53,-65 -99,-84 -42,-18 -94,-29 -149,-29 -32,0 -64,4 -93,11 -30,6 -58,17 -82,30 -19,11 -26,35 -16,54 11,19 35,25 54,15 17,-10 38,-17 61,-23 24,-5 49,-8 76,-8 44,0 86,8 118,22 29,12 50,28 59,46z"/>
     <path class="fil13" d="M2233 3996c-69,0 -125,56 -125,125 0,31 11,60 31,82l186 0c1,0 1,0 1,0 20,-22 32,-51 32,-82 0,-69 -56,-125 -125,-125z"/>
     <circle class="fil14" cx="2208" cy="4125" r="60"/>
     <rect class="fil4" x="2094" y="4203" width="266.575" height="70.3477" rx="35" ry="35"/>
    </g>
   </g>
  </g>
 </g>
</svg>
